<?xml version="1.0" standalone="no"?>
<!DOCTYPE svg PUBLIC "-//W3C//DTD SVG 20010904//EN"
 "http://www.w3.org/TR/2001/REC-SVG-20010904/DTD/svg10.dtd">
<svg version="1.0" xmlns="http://www.w3.org/2000/svg"
 width="1280.000000pt" height="745.000000pt" viewBox="0 0 1280.000000 745.000000"
 preserveAspectRatio="none">
<metadata>
Created by potrace 1.15, written by Peter Selinger 2001-2017
</metadata>
<g transform="translate(0.000000,745.000000) scale(0.100000,-0.100000)"
fill="#000000" stroke="none">
<path d="M8738 7435 c-4 -4 -244 -8 -535 -10 -290 -1 -598 -6 -683 -9 -85 -4
-168 -7 -185 -5 -45 3 -78 3 -220 1 -71 -1 -206 1 -300 4 -322 11 -774 8 -855
-6 -30 -5 -77 -10 -105 -12 -27 -2 -53 -7 -57 -12 -4 -6 -16 -5 -32 2 -17 8
-34 8 -51 2 -13 -5 -37 -10 -52 -11 -65 -4 -548 1 -658 7 -66 3 -129 6 -140 6
-11 1 -40 5 -65 10 -25 5 -61 11 -80 14 -19 2 -46 6 -60 9 -14 3 -51 1 -82 -3
-32 -5 -84 -5 -115 -1 -43 6 -70 4 -106 -7 -36 -12 -58 -13 -92 -6 -24 5 -59
8 -77 5 -18 -2 -82 -4 -143 -4 -175 -1 -1789 10 -1800 12 -23 4 -158 -13 -183
-23 -19 -8 -257 -12 -802 -14 -426 -1 -815 -4 -864 -7 -79 -5 -92 -9 -117 -33
-16 -15 -29 -32 -29 -37 0 -8 -37 -63 -92 -136 -69 -90 -61 -62 -74 -276 -3
-60 -10 -115 -15 -121 -5 -7 -12 -39 -15 -72 -4 -51 -2 -62 13 -70 17 -10 18
-34 19 -351 1 -188 -2 -341 -7 -341 -5 0 -5 -10 0 -22 5 -13 9 -905 9 -1983 1
-1078 4 -2142 8 -2365 3 -223 6 -413 5 -422 -2 -27 -1 -74 4 -163 4 -82 5
-115 2 -365 -2 -169 3 -194 40 -208 19 -7 941 -12 2968 -16 6471 -11 8411 -15
8437 -20 15 -2 31 -7 37 -10 5 -4 12 -2 16 4 4 7 172 10 490 9 602 -1 611 0
620 107 14 159 26 1796 40 5504 3 602 5 1104 6 1115 0 11 -2 69 -6 128 -7 102
-9 110 -35 136 l-28 27 -246 -3 c-306 -3 -3007 -2 -3096 2 -36 1 -76 7 -90 12
-14 6 -83 11 -155 12 -175 2 -316 8 -340 16 -11 3 -23 3 -27 0z"/>
</g>
</svg>
