<?xml version="1.0" standalone="no"?>
<!DOCTYPE svg PUBLIC "-//W3C//DTD SVG 20010904//EN"
 "http://www.w3.org/TR/2001/REC-SVG-20010904/DTD/svg10.dtd">
<svg version="1.0" xmlns="http://www.w3.org/2000/svg"
 width="905.000000pt" height="1280.000000pt" viewBox="0 0 905.000000 1280.000000"
 preserveAspectRatio="none">
<metadata>
Created by potrace 1.15, written by Peter Selinger 2001-2017
</metadata>
<g transform="translate(0.000000,1280.000000) scale(0.100000,-0.100000)"
fill="#000000" stroke="none">
<path d="M2536 12750 c-38 -13 -56 -15 -85 -8 -20 6 -68 12 -108 15 -63 5 -74
3 -95 -16 -34 -32 -66 -37 -118 -17 -59 24 -110 31 -110 17 0 -7 -25 -10 -75
-8 -76 3 -127 -10 -150 -40 -8 -10 -16 -10 -39 2 -16 9 -32 12 -35 7 -3 -5
-50 -9 -103 -10 -54 0 -106 -3 -116 -6 -10 -4 -40 0 -67 9 -32 9 -53 11 -61 5
-7 -7 -24 -4 -50 7 -22 9 -63 16 -94 16 -30 -1 -60 3 -67 9 -21 17 -75 12
-308 -32 -216 -40 -293 -44 -340 -14 -11 7 -70 15 -136 18 l-116 5 -41 -30
c-22 -16 -44 -29 -49 -28 -21 5 -106 -37 -120 -59 -6 -11 -12 -69 -14 -138 -1
-97 2 -125 16 -152 14 -26 16 -54 14 -140 -4 -190 3 -318 20 -349 19 -37 16
-152 -8 -238 -7 -29 -8 -52 0 -78 7 -25 7 -49 1 -70 -6 -18 -13 -102 -16 -188
-7 -185 -23 -168 159 -170 l120 -2 -100 -8 c-55 -4 -118 -5 -140 -2 -44 5 -48
-1 -47 -72 1 -16 1 -47 1 -68 1 -21 -6 -52 -15 -69 -13 -25 -15 -47 -9 -117 4
-47 10 -90 13 -96 4 -5 7 -56 8 -112 0 -56 6 -108 11 -115 6 -7 18 -57 27
-111 15 -88 15 -100 1 -130 -10 -22 -15 -62 -15 -122 0 -50 0 -123 -1 -164 0
-41 4 -77 10 -80 9 -6 11 -21 11 -111 1 -68 -7 -147 -14 -159 -13 -20 -11
-104 3 -129 20 -37 55 -52 147 -63 90 -10 122 -19 67 -19 -39 0 -136 -33 -172
-59 -26 -19 -42 -58 -41 -101 2 -81 -2 -252 -7 -279 -3 -19 -1 -36 5 -40 9 -6
14 -140 10 -261 -1 -19 0 -57 1 -85 3 -64 -8 -220 -18 -247 -4 -12 -3 -40 2
-64 9 -39 8 -45 -21 -81 -29 -37 -30 -42 -25 -108 3 -39 9 -74 13 -80 5 -5 11
-69 14 -140 3 -72 8 -138 12 -148 7 -20 22 -24 124 -31 134 -10 149 -27 18
-20 l-118 5 -1 -53 c-2 -71 1 -94 15 -153 12 -53 13 -116 1 -150 -4 -11 -9
-27 -11 -35 -4 -12 -7 -12 -13 -1 -19 30 -22 -54 -6 -186 4 -41 3 -75 -5 -99
-10 -29 -10 -52 0 -110 9 -54 10 -77 2 -87 -6 -7 -14 -38 -18 -68 -5 -47 -2
-61 25 -114 29 -56 42 -135 23 -135 -5 0 -6 -26 -4 -57 3 -40 -2 -76 -16 -116
-17 -50 -18 -65 -8 -110 7 -29 11 -74 9 -102 -9 -131 -13 -117 42 -138 28 -10
89 -21 138 -24 48 -3 87 -9 87 -13 0 -5 -27 -13 -59 -18 -70 -13 -155 -53
-175 -85 -8 -12 -19 -51 -25 -87 -12 -77 -6 -300 9 -350 12 -43 13 -131 1
-196 -5 -27 -12 -94 -16 -149 -4 -54 -10 -107 -15 -115 -19 -36 -11 -157 15
-215 20 -45 37 -242 24 -267 -10 -18 -13 -112 -7 -195 3 -35 8 -37 123 -46 22
-2 4 -4 -40 -5 -68 -2 -82 -5 -92 -22 -9 -14 -10 -27 -3 -46 6 -14 8 -30 4
-35 -3 -5 -8 -21 -10 -36 -3 -15 -9 -32 -13 -38 -5 -5 -16 -40 -25 -78 -14
-53 -15 -75 -6 -105 6 -20 18 -62 27 -92 10 -33 15 -87 14 -135 -2 -130 -2
-156 5 -235 4 -48 1 -88 -7 -112 -9 -28 -9 -43 0 -65 7 -18 12 -95 13 -203 0
-123 4 -181 13 -196 12 -19 20 -52 15 -64 -1 -3 -3 -60 -5 -128 -4 -146 -8
-141 128 -149 95 -6 155 -22 83 -23 -21 0 -66 -7 -99 -16 -142 -37 -158 -63
-162 -269 -1 -55 -3 -152 -4 -215 -2 -71 2 -126 10 -145 12 -31 14 -161 4
-250 -13 -117 -13 -271 1 -328 11 -42 12 -62 4 -78 -6 -11 -10 -60 -9 -110 1
-49 -1 -92 -5 -96 -3 -3 -6 -29 -6 -57 0 -28 -7 -71 -16 -95 -8 -24 -13 -45
-11 -47 1 -2 72 -6 156 -10 187 -9 179 -24 -14 -24 l-140 0 3 -47 c2 -27 8
-58 14 -70 6 -12 7 -37 3 -60 -12 -70 -9 -108 13 -154 12 -25 22 -57 22 -72 0
-42 80 -114 136 -123 28 -4 55 -2 70 5 16 7 31 8 42 2 8 -5 23 -5 31 -1 61 31
211 46 246 24 11 -6 54 -15 95 -19 41 -4 87 -13 103 -21 26 -14 31 -13 63 7
31 19 40 20 73 10 48 -14 131 -14 131 -1 0 6 11 15 24 22 20 8 32 7 61 -6 20
-10 43 -15 51 -12 9 3 27 0 42 -8 40 -20 171 -21 218 -1 45 19 117 23 188 11
l48 -8 -3 94 c-4 147 -1 214 11 202 6 -6 12 -40 15 -75 3 -59 9 -120 21 -195
4 -31 35 -54 72 -54 9 0 29 -6 43 -14 37 -19 83 -11 122 22 9 9 36 17 60 18
23 1 56 5 73 9 21 5 42 1 62 -9 35 -18 123 -21 139 -5 5 5 25 12 43 14 18 3
42 11 54 18 30 20 180 15 223 -7 27 -14 39 -15 74 -6 26 7 65 9 103 4 34 -4
71 -6 84 -5 13 1 34 -4 47 -13 27 -18 75 -13 112 12 28 17 143 27 143 12 0
-14 67 -12 110 4 20 7 47 9 62 5 15 -4 72 -6 128 -4 72 2 113 -1 136 -11 29
-12 38 -12 62 0 31 16 108 31 137 27 11 -2 29 -11 40 -20 16 -15 33 -17 88
-13 57 4 71 1 88 -14 16 -15 38 -19 98 -21 42 0 76 -2 76 -3 0 0 23 -2 50 -4
39 -2 55 2 73 17 12 11 22 17 22 12 0 -5 11 2 24 14 18 17 38 23 84 26 32 1
69 6 82 10 14 4 44 0 76 -11 43 -14 57 -16 76 -6 13 7 39 13 58 14 65 2 327
-18 363 -28 14 -5 17 2 17 43 0 26 7 73 15 103 8 30 15 74 15 98 0 24 5 42 11
42 7 0 10 -41 7 -132 l-3 -133 47 3 c25 2 56 -2 68 -8 14 -8 30 -8 48 -2 19 6
37 4 62 -6 38 -16 74 -21 215 -25 55 -1 104 -9 125 -18 39 -18 134 -18 167 -1
11 6 22 9 25 7 14 -14 154 -15 201 -1 61 17 263 14 297 -4 14 -7 26 -8 33 -2
13 10 46 10 62 0 9 -5 34 1 131 32 18 6 45 10 60 9 16 -1 40 3 54 9 32 13 89
7 165 -18 42 -14 97 -21 183 -23 116 -4 130 -2 210 25 49 16 103 28 124 26 20
-1 40 0 43 3 10 11 126 1 141 -12 18 -15 63 -21 84 -12 17 6 69 11 209 17 74
4 99 1 117 -11 14 -8 46 -16 72 -17 26 0 49 -4 52 -7 3 -3 30 -12 61 -21 56
-16 57 -16 82 8 22 20 36 24 91 24 36 0 76 -5 90 -11 15 -7 45 -9 78 -5 l53 7
-3 87 c-2 51 2 112 11 147 9 40 13 99 10 180 -3 101 -7 123 -23 140 -19 21
-19 21 3 43 19 20 23 36 26 120 4 101 18 97 20 -6 1 -42 6 -58 26 -77 23 -23
31 -25 130 -25 77 0 105 3 106 13 3 35 -4 103 -10 112 -32 42 -37 167 -9 218
6 12 13 49 15 82 3 58 5 68 33 127 7 15 9 34 5 45 -5 10 -7 24 -6 30 1 7 -10
47 -25 90 -25 71 -26 84 -19 168 10 116 9 273 -3 288 -22 29 -23 96 0 143 26
56 32 99 29 204 -1 19 -1 46 0 59 2 35 -11 41 -102 50 l-84 8 88 2 c53 0 87 5
87 11 0 6 -7 25 -16 41 -12 24 -14 51 -10 122 11 189 22 283 35 306 16 28 10
146 -8 164 -6 6 -11 18 -11 28 0 9 -10 29 -22 44 -18 23 -22 42 -23 117 -2 63
2 102 12 127 39 94 48 285 15 324 -13 14 -13 24 -3 57 10 33 9 48 -5 92 -9 29
-21 59 -27 66 -5 7 -7 33 -3 60 4 26 10 73 13 104 l5 58 -64 0 c-91 0 -97 -9
-114 -162 -7 -67 -16 -129 -19 -137 -4 -9 -12 -74 -20 -144 -7 -71 -17 -133
-23 -139 -6 -6 -7 7 -1 39 9 55 29 372 29 469 0 59 -3 69 -29 94 l-28 29 23 5
c12 3 25 14 28 24 11 34 14 245 6 330 -12 113 -25 499 -16 491 3 -3 8 -64 10
-135 2 -71 10 -187 17 -259 7 -71 12 -177 11 -234 -2 -119 10 -176 38 -191 11
-6 53 -10 93 -8 l72 3 14 40 c8 26 12 78 11 145 -1 58 -1 114 -1 125 5 64 3
84 -12 114 -21 42 -21 55 -1 86 14 21 14 26 -1 55 -13 25 -14 38 -6 62 13 38
14 98 2 117 -6 9 -6 22 -1 31 5 9 5 33 1 53 -6 25 -5 44 5 62 13 26 10 79 -8
101 -5 7 -3 40 3 80 7 38 13 119 14 180 1 61 5 117 10 123 4 7 9 75 10 151 4
161 16 146 -133 157 -51 3 -90 8 -88 11 3 2 58 7 123 11 l118 6 -2 70 c-7 226
-13 276 -35 322 -6 12 -8 43 -5 70 4 26 3 64 -2 84 -5 20 -4 43 1 52 11 21 22
209 18 317 -1 47 -4 198 -5 335 -3 272 -11 355 -39 397 -12 18 -16 37 -12 53
l7 26 -93 -3 -93 -3 -13 -40 c-7 -22 -16 -85 -19 -140 -9 -138 -22 -83 -16 66
5 110 4 118 -17 139 -20 20 -20 23 -5 34 36 26 50 200 25 296 -6 19 -9 53 -8
75 1 33 2 35 5 10 2 -16 11 -59 19 -95 9 -36 20 -102 24 -148 4 -46 12 -88 19
-95 15 -15 202 -10 214 6 4 7 6 33 3 59 -3 26 -1 50 5 53 13 9 4 192 -11 210
-6 8 -13 57 -16 112 -2 54 -8 125 -14 158 -6 33 -11 65 -11 70 -1 6 6 61 15
123 9 62 16 158 16 214 0 56 5 130 11 164 9 52 8 72 -6 120 -18 61 -14 113 11
148 17 24 18 77 3 126 -5 19 -10 52 -10 73 0 31 -4 37 -22 39 -12 0 -26 2 -32
3 -5 2 -39 4 -75 5 -87 3 -43 18 56 19 39 1 73 4 77 7 3 3 1 17 -4 31 -6 17
-6 30 1 39 8 9 8 18 0 34 -6 11 -9 24 -6 29 3 4 8 28 11 52 3 24 10 59 15 79
25 95 28 154 11 225 -6 28 -14 63 -16 78 -3 16 -12 43 -21 60 -9 18 -21 40
-26 50 -5 11 -4 26 4 40 7 14 13 95 17 222 8 320 3 457 -21 540 -9 33 -11 64
-7 90 5 22 6 53 3 68 -5 23 -10 28 -27 24 -12 -3 -48 -11 -79 -17 -32 -6 -61
-17 -65 -23 -5 -7 -8 -113 -8 -237 -1 -213 -16 -455 -31 -469 -3 -3 -3 19 0
49 12 123 15 266 8 463 -7 201 -8 209 -30 227 -22 18 -22 19 -2 25 11 3 23 17
26 29 3 13 -1 126 -8 252 -11 179 -11 246 -2 309 l12 80 -1 -105 c-3 -211 22
-510 45 -537 14 -18 51 -16 110 5 47 16 49 18 47 52 -2 20 1 42 5 49 13 20 12
200 0 224 -7 12 -8 29 -4 41 16 40 40 252 38 326 -2 41 2 102 8 135 5 33 7 78
3 100 -4 22 -3 45 1 50 16 20 28 83 18 93 -6 6 -7 16 -1 27 7 11 5 32 -5 62
-11 33 -12 47 -3 52 8 5 7 21 -5 60 -8 29 -17 92 -19 139 -3 83 -18 142 -37
142 -4 0 -18 11 -30 25 -22 26 -70 33 -113 16 -18 -7 -63 4 -75 20 -3 3 -27 9
-55 13 -27 4 -66 10 -85 12 -38 6 -79 7 -138 3 -42 -2 -102 7 -148 23 -28 10
-35 8 -66 -15 -30 -23 -42 -26 -86 -23 -28 3 -60 10 -71 15 -13 7 -22 8 -26 1
-3 -5 -41 -8 -88 -6 -55 2 -91 -1 -108 -10 -53 -27 -322 -16 -374 15 -5 3 -35
7 -65 8 -30 1 -103 4 -162 6 -60 2 -108 0 -108 -4 0 -14 -63 -37 -98 -36 -18
0 -37 -4 -42 -9 -5 -5 -15 -65 -22 -133 -14 -139 -12 -142 -43 69 -9 58 -20
109 -24 113 -5 5 -19 3 -32 -3 -12 -7 -47 -12 -77 -11 -33 0 -62 -4 -71 -12
-30 -24 -66 -35 -84 -25 -34 18 -193 23 -235 6 -49 -19 -211 -2 -238 25 -4 4
-28 7 -53 7 -25 0 -54 7 -65 15 -16 12 -22 11 -49 -8 -20 -15 -31 -18 -34 -10
-3 9 -14 8 -43 -2 -26 -9 -49 -11 -69 -5 -16 4 -32 6 -35 3 -3 -3 -11 -1 -18
4 -35 27 -63 23 -112 -17 -57 -47 -73 -46 -188 16 -15 8 -54 17 -85 18 -32 2
-76 8 -98 14 -22 6 -74 9 -115 7 -41 -1 -101 2 -133 7 -49 9 -61 8 -76 -6 -10
-9 -21 -16 -25 -16 -5 0 -24 -13 -43 -30 -18 -16 -40 -30 -48 -30 -8 0 -15 -4
-15 -9 0 -12 -39 -26 -62 -22 -10 1 -45 -5 -78 -15 -57 -16 -61 -16 -80 1 -11
10 -22 25 -25 34 -3 9 -24 28 -48 43 -37 24 -48 26 -76 18 -26 -7 -41 -5 -72
10 -45 23 -82 26 -98 6 -7 -8 -28 -16 -49 -19 -20 -3 -59 -10 -87 -16 -106
-22 -141 -24 -176 -8 -90 41 -130 48 -201 37 -42 -6 -81 -19 -99 -32 -27 -20
-33 -21 -72 -10 l-42 11 -42 -43 c-33 -34 -47 -61 -68 -130 -15 -47 -28 -86
-29 -86 0 0 -1 37 -1 83 -1 92 -21 147 -66 180 -50 36 -296 32 -409 -7 -32
-11 -53 -11 -155 -3 -16 1 -39 7 -50 13 -11 6 -44 14 -73 17 -29 3 -62 13 -74
22 -26 18 -20 18 -82 -5z m6171 -907 c-2 -16 -4 -5 -4 22 0 28 2 40 4 28 2
-13 2 -35 0 -50z m-4 -5073 c3 -34 2 -47 -3 -35 -8 19 -14 103 -6 94 2 -2 6
-29 9 -59z m22 -5287 c-16 -64 -25 -143 -26 -220 0 -45 -4 -94 -8 -110 -5 -18
-7 7 -6 67 5 169 22 290 41 290 3 0 3 -12 -1 -27z m-18 -555 c-3 -8 -6 -5 -6
6 -1 11 2 17 5 13 3 -3 4 -12 1 -19z"/>
<path d="M8736 588 c-26 -40 -42 -218 -37 -439 l1 -77 30 -4 c18 -3 31 0 34 9
3 7 11 13 19 13 7 0 26 13 42 30 16 16 33 30 38 30 16 0 74 64 82 91 4 13 13
33 20 44 22 36 26 89 10 135 -8 24 -14 70 -13 106 1 35 -1 67 -5 70 -4 4 -51
9 -106 12 -96 4 -99 4 -115 -20z"/>
</g>
</svg>
