<?xml version="1.0" standalone="no"?>
<!DOCTYPE svg PUBLIC "-//W3C//DTD SVG 20010904//EN"
 "http://www.w3.org/TR/2001/REC-SVG-20010904/DTD/svg10.dtd">
<svg version="1.0" xmlns="http://www.w3.org/2000/svg"
 width="1280.000000pt" height="905.000000pt" viewBox="0 0 1280.000000 905.000000"
 preserveAspectRatio="none">
<metadata>
Created by potrace 1.15, written by Peter Selinger 2001-2017
</metadata>
<g transform="translate(0.000000,905.000000) scale(0.100000,-0.100000)"
fill="#000000" stroke="none">
<path d="M5255 9011 c-6 -10 16 -36 45 -51 24 -13 53 -2 46 17 -3 8 -6 19 -6
25 0 6 -7 8 -15 5 -8 -4 -17 -2 -20 3 -8 13 -42 13 -50 1z"/>
<path d="M4643 8944 c9 -10 -17 -32 -47 -40 -14 -3 -26 -9 -26 -14 0 -4 -9
-17 -20 -30 -16 -19 -22 -21 -35 -10 -8 7 -15 8 -15 3 0 -16 31 -53 46 -53 16
0 19 -16 5 -25 -12 -7 -56 12 -96 41 -32 23 -115 41 -115 25 0 -5 -17 -9 -37
-8 -25 1 -37 -2 -36 -10 3 -12 -30 -12 -59 1 -9 4 -27 6 -40 4 -20 -3 -24 -10
-28 -51 -3 -26 -8 -47 -12 -47 -5 0 -20 0 -35 0 -20 0 -24 3 -14 9 10 7 9 12
-8 23 -12 9 -21 19 -20 24 1 5 -1 21 -5 37 -10 34 -39 36 -97 5 -35 -18 -46
-20 -71 -10 -30 11 -135 5 -154 -9 -5 -4 -20 -5 -33 -2 -18 5 -22 2 -19 -13 2
-10 -3 -19 -10 -19 -7 0 -23 -10 -36 -22 -17 -16 -26 -19 -34 -11 -8 8 -24 5
-58 -11 -26 -13 -54 -22 -63 -22 -43 2 -57 4 -68 13 -8 7 -18 5 -28 -6 -9 -9
-24 -16 -34 -16 -10 0 -21 -3 -24 -7 -9 -9 22 -43 40 -43 7 0 13 -7 13 -15 0
-8 15 -19 33 -24 31 -9 31 -9 5 -10 -43 -1 -29 -51 13 -51 10 0 31 -12 46 -27
15 -14 23 -23 17 -20 -14 8 -74 -11 -74 -24 0 -5 -7 -9 -15 -9 -8 0 -15 -4
-15 -10 0 -5 -6 -9 -12 -7 -8 1 -12 -6 -10 -17 3 -17 -1 -18 -35 -11 -35 7
-56 9 -120 13 -13 1 -23 6 -23 11 0 11 56 41 77 41 7 0 13 10 13 21 0 17 -3
19 -14 10 -11 -10 -15 -4 -20 31 -3 24 -6 50 -7 60 -1 21 -34 51 -50 46 -7 -2
-14 -22 -15 -44 -2 -51 -4 -53 -14 -26 -8 18 -17 22 -54 22 -41 0 -76 12 -157
56 -14 7 -30 10 -34 6 -4 -4 -5 1 -3 10 1 9 0 16 -3 15 -3 -1 -13 4 -22 11 -8
7 -18 9 -21 4 -6 -10 -36 -9 -53 1 -6 4 -19 4 -28 1 -9 -4 -20 -2 -24 5 -10
16 -71 -6 -71 -26 0 -8 -5 -11 -10 -8 -6 4 -17 2 -24 -4 -9 -8 -22 -8 -39 -2
-19 7 -28 6 -37 -4 -9 -11 -16 -11 -40 3 -16 9 -26 20 -24 24 9 14 -41 8 -64
-8 -12 -8 -22 -10 -22 -5 0 6 -12 11 -26 11 -14 0 -23 4 -19 10 3 6 17 10 31
10 13 0 24 4 24 9 0 7 -61 9 -91 2 -14 -3 -46 -37 -43 -46 2 -5 -14 -20 -36
-33 -35 -20 -41 -21 -46 -7 -3 8 -15 15 -25 15 -23 0 -23 8 -4 34 22 29 19 35
-19 51 -19 8 -37 19 -41 25 -9 14 -65 13 -65 -2 0 -6 10 -22 22 -35 28 -30 21
-35 -32 -19 -45 13 -62 32 -40 46 33 21 -12 48 -67 41 -6 -1 -14 3 -18 9 -3 5
-17 10 -30 10 -18 0 -23 -4 -18 -15 4 -13 -1 -12 -28 4 -25 14 -40 17 -56 10
-30 -11 -29 -23 3 -48 18 -14 21 -21 12 -21 -9 0 -21 7 -28 15 -10 12 -16 13
-26 4 -16 -13 -19 -49 -3 -49 5 0 7 -4 4 -10 -3 -5 -15 -10 -26 -10 -10 0 -19
-4 -19 -9 0 -5 -11 -4 -24 2 -22 11 -23 13 -8 21 25 13 32 27 32 61 0 25 -4
31 -23 33 -13 1 -31 -6 -40 -16 -8 -9 -28 -30 -42 -46 -18 -19 -25 -36 -22
-52 3 -19 0 -24 -17 -25 -11 0 -15 -3 -8 -6 14 -5 17 -33 3 -33 -5 0 -11 7
-15 15 -8 21 -26 19 -26 -4 0 -10 -7 -24 -15 -31 -8 -7 -15 -9 -15 -6 0 4 -7
0 -16 -8 -8 -9 -13 -20 -10 -24 7 -11 -62 -44 -75 -37 -5 4 -9 -8 -9 -26 0
-18 -3 -29 -7 -26 -11 12 -31 -13 -26 -33 4 -15 0 -20 -16 -20 -25 0 -26 8 -6
34 17 22 20 56 6 56 -5 0 -11 12 -13 26 -2 22 -9 27 -35 29 -39 3 -39 2 -12
-34 22 -29 20 -39 -18 -90 -7 -10 -30 34 -26 50 3 9 0 20 -5 23 -13 8 -42 -20
-42 -40 0 -8 -11 -20 -25 -26 -15 -7 -24 -17 -21 -25 3 -7 1 -13 -4 -13 -5 0
-12 -9 -15 -21 -7 -21 -7 -21 -19 2 -6 12 -25 26 -42 31 -17 4 -37 14 -43 22
-7 8 -19 12 -27 9 -9 -3 -14 2 -14 15 0 12 -4 24 -10 27 -12 7 -70 -34 -70
-51 0 -18 31 -39 54 -36 17 2 18 1 6 -7 -22 -16 -50 -13 -50 4 0 8 -4 15 -10
15 -5 0 -26 11 -46 25 -21 14 -45 24 -54 23 -9 -2 -24 3 -33 10 -13 11 -18 9
-31 -9 l-15 -22 -5 24 c-3 13 -7 38 -8 54 -2 23 -11 34 -35 45 -18 8 -33 22
-33 31 0 9 -9 19 -20 22 -24 6 -26 -5 -5 -23 8 -7 15 -23 15 -36 0 -19 -5 -24
-25 -24 -21 0 -25 -5 -25 -32 -1 -27 -2 -30 -11 -15 -8 14 -14 15 -31 6 -16
-9 -19 -18 -15 -44 4 -21 1 -35 -6 -38 -9 -3 -9 -10 1 -26 10 -17 10 -26 2
-36 -9 -11 -8 -20 4 -37 20 -29 21 -49 1 -41 -9 3 -21 -2 -28 -11 -9 -12 -21
-16 -41 -12 -40 7 -46 17 -7 12 20 -2 30 1 28 8 -2 6 -16 9 -32 8 -16 -2 -31
2 -36 10 -6 9 -9 7 -9 -8 0 -28 34 -57 58 -50 12 4 25 -1 37 -14 10 -11 13
-20 7 -20 -6 0 -14 -9 -17 -20 -4 -11 -10 -18 -15 -15 -4 3 -11 -7 -15 -22 -4
-16 -2 -29 5 -33 17 -11 3 -47 -20 -53 -15 -4 -20 -14 -20 -36 0 -17 3 -30 8
-30 23 4 20 -5 -16 -38 -41 -41 -50 -79 -20 -89 10 -3 18 -11 18 -19 0 -7 3
-20 6 -29 5 -13 1 -15 -25 -10 -27 6 -31 4 -31 -14 0 -16 -4 -20 -16 -15 -14
5 -14 3 -2 -18 7 -13 18 -27 23 -31 6 -4 7 -8 3 -8 -3 0 3 -23 14 -52 15 -40
16 -53 7 -59 -10 -6 -10 -13 -1 -34 7 -15 8 -24 2 -20 -5 3 -10 2 -10 -4 0 -5
5 -13 10 -16 18 -11 11 -27 -10 -22 -19 5 -21 2 -24 -35 -1 -7 5 -12 12 -10 8
1 11 -2 8 -7 -3 -5 1 -14 9 -21 11 -9 12 -16 5 -26 -12 -14 3 -49 29 -70 8 -6
11 -16 6 -24 -4 -7 -2 -16 5 -20 9 -6 13 -30 13 -72 -1 -34 1 -71 4 -80 6 -24
23 -23 23 2 0 11 6 20 14 20 27 0 29 55 2 89 -8 10 -8 13 0 8 13 -8 54 20 54
36 0 8 20 14 56 15 47 2 55 0 52 -14 -4 -22 -28 -30 -28 -10 0 9 -8 16 -19 16
-25 0 -32 -11 -24 -39 4 -15 11 -21 23 -18 12 3 17 0 15 -12 -2 -9 -4 -23 -4
-32 -1 -8 -10 -25 -21 -37 -11 -12 -20 -26 -20 -32 0 -6 -4 -9 -9 -5 -5 3 -12
1 -15 -4 -4 -5 -2 -12 4 -16 6 -4 8 -10 5 -15 -3 -5 -1 -11 5 -15 5 -3 10 3
10 13 0 11 7 23 16 26 14 5 15 4 5 -8 -12 -14 -5 -46 12 -57 11 -8 1 -29 -14
-29 -5 0 -9 7 -9 15 0 8 -11 22 -25 31 -24 15 -28 15 -71 -1 -38 -14 -50 -15
-69 -5 -13 7 -28 9 -34 5 -7 -4 -18 -1 -26 5 -11 9 -15 9 -15 1 0 -6 7 -14 15
-17 17 -7 21 -44 5 -44 -5 0 -10 -4 -10 -10 0 -5 7 -10 15 -10 8 0 15 5 15 10
0 6 5 10 10 10 6 0 10 -13 10 -29 0 -39 21 -54 63 -46 44 8 53 -5 26 -39 -17
-22 -29 -26 -69 -26 -60 0 -80 -7 -80 -29 0 -9 -5 -22 -12 -29 -7 -7 -8 -12
-4 -12 5 0 3 -7 -4 -15 -10 -12 -9 -16 3 -21 9 -3 13 -13 10 -24 -4 -14 1 -21
19 -25 13 -3 32 -19 43 -35 11 -17 28 -30 38 -30 24 0 21 -16 -5 -34 -17 -12
-20 -18 -10 -28 16 -16 15 -31 0 -22 -8 5 -7 1 2 -10 18 -22 93 -17 118 8 15
14 14 18 -13 46 -16 16 -34 30 -41 30 -6 0 -14 8 -17 18 -2 9 -8 25 -12 35 -5
12 -2 17 10 17 9 0 13 -5 10 -10 -10 -16 76 -100 102 -100 13 0 27 9 34 22 10
19 8 25 -17 45 -16 13 -32 23 -36 23 -3 0 -11 14 -17 30 -5 17 -14 30 -19 30
-13 0 -44 68 -37 80 3 6 20 10 36 10 19 0 28 -4 24 -11 -4 -6 3 -17 15 -26 11
-8 26 -27 31 -41 8 -21 12 -24 20 -12 8 13 10 13 18 1 5 -8 7 -20 4 -27 -5
-14 44 -63 65 -64 7 0 12 -14 12 -38 0 -21 5 -43 11 -49 8 -8 7 -11 -2 -10
-44 2 -61 -4 -55 -18 5 -13 2 -14 -16 -4 -15 8 -23 8 -26 1 -1 -5 -11 -8 -20
-6 -37 9 -62 -41 -62 -125 0 -51 4 -63 30 -91 21 -23 35 -30 50 -25 11 4 20 2
20 -4 0 -6 4 -11 10 -11 5 0 7 7 4 15 -4 8 -1 15 5 15 6 0 10 -11 9 -25 -2
-20 -8 -25 -30 -25 -15 0 -28 5 -28 10 0 6 -4 10 -9 10 -13 0 0 -51 15 -57 24
-9 16 -33 -10 -31 -14 1 -22 6 -20 10 12 19 -8 25 -36 11 -29 -14 -40 -33 -19
-33 5 0 7 5 4 10 -3 6 0 10 8 10 18 0 17 -31 -2 -46 -10 -8 -11 -13 -3 -18 18
-11 14 -40 -8 -56 -11 -8 -20 -18 -20 -23 0 -4 -12 -18 -27 -31 -24 -20 -25
-26 -14 -40 7 -9 19 -16 26 -16 7 0 12 -11 11 -25 0 -14 -4 -25 -8 -25 -15 0
-8 -41 7 -46 9 -4 30 1 47 9 40 20 51 12 19 -14 -19 -16 -21 -22 -11 -34 7 -8
20 -15 29 -15 9 0 3 -8 -17 -20 -43 -26 -62 -25 -87 5 -14 19 -30 26 -58 27
-26 1 -35 4 -27 12 15 15 12 46 -4 46 -8 0 -18 9 -21 20 -3 11 -14 20 -24 20
-25 0 -33 -11 -19 -28 7 -8 13 -29 14 -46 1 -17 2 -39 3 -48 1 -15 35 -35 53
-30 4 1 12 -7 18 -18 9 -16 15 -18 30 -10 24 13 26 7 3 -15 -13 -14 -14 -21
-5 -36 10 -16 9 -19 -7 -19 -17 0 -19 -6 -16 -31 4 -32 15 -53 15 -29 0 9 5 7
15 -6 8 -10 15 -29 15 -40 0 -12 12 -36 27 -53 27 -31 51 -43 37 -18 -4 6 3 2
15 -10 12 -13 26 -23 31 -23 13 0 52 -87 57 -125 2 -16 8 -32 13 -33 6 -2 7
-8 4 -13 -10 -17 16 -37 57 -44 45 -8 47 -25 3 -37 -38 -11 -90 0 -75 15 19
19 12 43 -50 169 -5 10 -6 24 -3 32 7 18 -10 28 -71 43 -35 8 -54 8 -62 1 -17
-14 -17 -32 0 -25 19 7 48 -18 44 -39 -2 -11 -8 -28 -14 -39 -6 -11 -14 -37
-18 -58 -6 -29 -4 -38 9 -43 9 -3 16 -14 16 -24 0 -26 36 -35 57 -15 14 15 17
15 25 2 5 -9 3 -27 -3 -44 -6 -15 -11 -48 -10 -73 1 -49 -5 -63 -31 -73 -22
-8 -106 27 -114 48 -9 23 -26 18 -19 -6 5 -13 3 -19 -3 -15 -17 10 -23 -25
-10 -55 9 -20 25 -33 53 -42 28 -10 41 -21 46 -38 3 -13 11 -23 17 -22 15 4
16 -14 1 -19 -6 -2 -11 -19 -12 -38 -2 -27 3 -36 22 -46 l24 -12 -29 -4 -29
-3 20 -20 c19 -19 19 -21 3 -37 -16 -16 -14 -58 3 -58 5 0 9 -6 9 -14 0 -8 7
-22 16 -31 13 -13 14 -21 5 -38 -7 -14 -8 -33 -3 -52 10 -34 -4 -75 -25 -75
-7 0 -13 -4 -13 -10 0 -5 5 -10 10 -10 6 0 3 -14 -6 -32 -11 -22 -13 -33 -5
-36 6 -2 11 -8 11 -13 0 -6 -4 -7 -10 -4 -5 3 -10 2 -10 -4 0 -6 -6 -8 -14 -5
-11 4 -13 0 -9 -15 3 -12 10 -21 15 -21 7 0 6 -5 -1 -13 -16 -20 -11 -87 6
-87 9 0 12 -7 9 -17 -14 -44 40 -58 59 -15 11 26 21 28 29 7 9 -23 54 -18 82
10 29 29 34 30 34 11 0 -8 9 -18 20 -21 20 -6 29 -35 10 -35 -19 0 -31 -39
-19 -61 9 -17 13 -19 20 -8 6 10 8 7 7 -11 -3 -21 2 -25 32 -30 23 -3 31 -8
23 -13 -31 -20 5 -44 39 -26 14 8 18 8 14 0 -4 -6 7 -25 24 -42 16 -18 30 -35
30 -40 0 -4 12 -12 28 -17 24 -9 22 -11 -26 -11 -51 -1 -52 0 -46 24 5 21 3
25 -14 25 -12 0 -23 -4 -27 -10 -3 -5 -13 -7 -23 -4 -15 5 -15 4 -2 -8 18 -15
23 -68 8 -85 -5 -7 -7 -17 -4 -22 4 -5 2 -12 -4 -16 -5 -3 -10 3 -10 14 0 12
-4 21 -10 21 -5 0 -7 -7 -4 -15 4 -10 0 -15 -11 -15 -10 0 -15 -7 -14 -17 1
-10 -1 -26 -5 -35 -5 -10 -1 -31 8 -49 17 -34 22 -64 6 -39 -7 12 -12 10 -30
-10 l-20 -24 31 -32 c17 -18 29 -38 26 -46 -4 -9 -6 -8 -6 4 -1 9 -11 20 -23
24 -31 9 -51 -21 -45 -68 3 -20 2 -38 -2 -40 -15 -6 10 -65 31 -76 13 -6 17
-11 10 -11 -7 -1 -10 -6 -7 -12 9 -14 -3 -59 -15 -59 -6 0 -10 11 -10 25 0 13
-8 28 -17 34 -10 5 -18 17 -18 27 0 9 -6 19 -14 22 -10 3 -12 -1 -8 -17 7 -27
3 -26 -23 1 -11 12 -22 19 -25 16 -3 -3 -7 -33 -8 -67 -1 -43 -6 -61 -15 -61
-8 0 -12 -9 -10 -23 2 -18 9 -22 35 -20 18 2 35 -2 38 -7 3 -6 -3 -10 -13 -10
-24 0 -50 -29 -35 -38 5 -4 13 -19 16 -34 6 -24 2 -29 -33 -49 -29 -17 -40
-29 -40 -47 0 -15 -7 -26 -20 -29 -23 -6 -27 -41 -5 -49 22 -9 18 -23 -7 -35
-20 -9 -23 -18 -24 -77 0 -44 -6 -79 -18 -100 -16 -30 -16 -36 -2 -51 9 -10
12 -22 7 -30 -6 -9 -10 -7 -14 8 -7 28 -27 27 -27 -1 l-1 -23 -18 21 c-12 15
-28 21 -51 20 -37 -2 -49 -19 -29 -42 11 -14 14 -13 26 8 12 23 12 22 10 -7
-2 -17 -6 -36 -10 -42 -4 -6 0 -16 8 -23 14 -11 13 -15 -5 -27 -12 -8 -28 -12
-36 -9 -12 5 -13 2 -2 -17 13 -23 18 -77 7 -77 -9 0 2 -49 11 -55 11 -7 40 23
40 40 0 8 18 19 41 25 22 6 43 18 46 26 3 7 16 14 29 14 24 0 24 -1 9 -30 -9
-17 -13 -35 -10 -39 3 -5 -1 -16 -9 -24 -8 -8 -12 -17 -9 -21 4 -3 -23 -6 -58
-6 -58 0 -65 -2 -76 -25 -6 -14 -7 -25 -2 -25 5 0 9 -4 9 -10 0 -5 -7 -10 -15
-10 -8 0 -15 -4 -15 -9 0 -23 14 -41 31 -41 22 0 24 -11 7 -28 -9 -9 -7 -16 7
-32 16 -18 16 -20 2 -20 -10 0 -17 -4 -17 -10 0 -5 5 -10 10 -10 6 0 10 -4 10
-10 0 -5 -11 -10 -24 -10 -32 0 -25 -29 14 -55 16 -11 34 -30 41 -42 10 -19 9
-25 -8 -40 -11 -10 -25 -28 -32 -40 -11 -22 -10 -22 14 -13 45 17 113 12 135
-10 25 -25 25 -27 -1 -69 -11 -18 -18 -36 -15 -39 3 -3 -2 -11 -12 -19 -9 -8
-11 -11 -3 -7 9 4 12 2 9 -7 -3 -8 -13 -13 -22 -13 -22 2 -20 -13 3 -21 23 -7
34 -41 17 -53 -19 -16 -74 -24 -81 -13 -11 19 -54 13 -53 -7 0 -9 -3 -25 -7
-34 -4 -11 -3 -18 4 -18 6 0 8 -11 5 -30 -5 -23 0 -38 20 -65 15 -19 24 -39
21 -45 -3 -5 3 -14 14 -19 15 -9 22 -6 34 12 13 18 16 19 16 5 1 -9 -6 -21
-15 -26 -15 -8 -14 -14 5 -58 12 -27 21 -58 19 -70 -1 -12 3 -29 11 -38 11
-14 11 -16 -2 -16 -10 0 -14 -9 -13 -25 0 -14 5 -25 9 -25 5 0 5 -5 2 -10 -4
-6 4 -19 17 -30 13 -11 18 -19 11 -20 -6 0 -15 5 -18 10 -4 6 -11 8 -16 4 -9
-5 -6 -22 8 -62 4 -8 0 -10 -12 -6 -13 5 -16 2 -13 -12 2 -10 10 -18 16 -16 7
1 12 -10 12 -28 0 -24 8 -34 45 -56 26 -15 54 -24 65 -21 11 3 24 -1 31 -9 15
-18 53 -18 69 1 7 8 25 15 41 15 16 0 29 4 29 9 0 18 34 22 49 5 15 -15 14
-15 -5 -6 -25 13 -39 5 -23 -14 12 -14 3 -38 -11 -29 -15 9 -32 -25 -28 -55 3
-21 0 -30 -9 -30 -8 0 -12 -4 -9 -8 3 -5 1 -25 -5 -45 -9 -32 -15 -37 -65 -52
-33 -9 -57 -23 -60 -33 -10 -32 -47 -97 -67 -119 -17 -19 -19 -27 -9 -49 10
-20 17 -24 35 -18 12 4 27 14 34 23 7 9 13 11 13 5 0 -7 9 -14 20 -17 12 -3
20 -14 20 -25 0 -12 3 -23 8 -25 13 -8 52 12 52 28 0 8 5 15 10 15 18 0 25 2
41 11 11 6 23 3 38 -10 12 -11 29 -17 39 -15 9 2 25 -2 35 -10 15 -12 16 -17
6 -34 -10 -17 -10 -24 1 -37 17 -20 22 -45 9 -45 -5 0 -9 -10 -9 -21 0 -17 -3
-19 -14 -10 -10 9 -16 8 -26 -4 -17 -21 13 -55 49 -55 34 0 15 -17 -24 -22
-31 -3 -32 -7 -22 -62 6 -32 27 -30 33 3 8 37 21 49 20 18 -1 -17 5 -22 21
-21 13 0 23 -5 23 -11 0 -6 14 -12 30 -12 17 0 30 4 30 9 0 5 4 7 9 3 15 -9
24 14 12 29 -8 10 -6 18 10 32 11 10 18 26 16 35 -3 13 0 16 12 12 12 -5 13
-3 4 7 -8 9 -9 19 -1 36 6 13 14 24 18 24 15 0 28 46 18 64 -5 10 -11 27 -13
39 -1 12 -6 30 -10 40 -5 13 -2 17 13 17 25 0 38 18 24 32 -8 8 -4 20 13 40
14 16 25 40 25 53 0 31 -28 97 -48 111 -13 9 -9 12 22 16 32 3 42 -1 73 -31
20 -20 48 -36 62 -37 14 -2 29 -3 33 -3 4 -1 16 -11 28 -23 15 -17 17 -24 8
-30 -10 -6 -7 -13 10 -27 19 -16 35 -19 105 -16 45 2 89 -1 99 -6 10 -5 34 -3
64 6 51 15 72 11 54 -10 -8 -10 -8 -19 -1 -34 8 -13 8 -22 1 -26 -6 -4 -8 -11
-5 -16 4 -5 1 -9 -5 -9 -6 0 -4 -12 6 -31 12 -24 20 -30 36 -25 13 3 31 -3 47
-15 l25 -20 18 23 c14 20 19 21 30 9 10 -10 10 -12 1 -7 -21 12 -15 -32 7 -54
11 -11 20 -25 20 -30 0 -6 6 -10 14 -10 7 0 16 -9 19 -19 3 -12 18 -24 38 -29
28 -8 38 -6 56 11 22 19 54 20 110 2 18 -6 23 -2 29 19 3 14 1 40 -5 57 -13
38 -14 79 -3 79 5 0 16 -18 25 -40 15 -38 17 -40 36 -28 12 7 24 21 27 30 9
30 22 20 22 -18 0 -20 7 -43 15 -51 21 -21 54 2 62 43 3 18 13 35 21 38 10 4
14 14 11 26 -4 16 -2 18 13 10 32 -17 53 -12 47 11 -4 15 -1 19 11 17 13 -2
16 -12 14 -36 -3 -27 0 -32 17 -32 11 0 27 10 35 22 l16 22 0 -25 c0 -38 10
-42 33 -13 23 30 18 89 -9 109 -9 6 -14 17 -10 23 11 18 23 14 30 -10 5 -19 8
-20 16 -8 6 9 6 18 0 24 -13 13 -13 26 0 26 6 0 10 -6 10 -14 0 -8 9 -18 21
-21 11 -4 28 -22 37 -41 9 -19 21 -33 28 -30 6 2 21 -9 33 -25 25 -33 24 -34
-15 -14 -38 20 -64 19 -64 -2 0 -15 -2 -14 -15 3 -13 17 -14 17 -15 2 0 -9 5
-20 10 -23 6 -4 8 -15 5 -26 -5 -14 -2 -19 13 -19 12 0 22 -9 25 -21 3 -12 10
-18 15 -15 5 3 15 -7 22 -23 9 -23 20 -30 51 -35 53 -8 62 -1 44 35 -9 16 -11
29 -5 29 5 0 10 -3 10 -7 0 -5 12 -8 28 -8 15 0 40 -4 56 -8 28 -8 29 -8 23
27 -8 49 18 49 27 0 5 -26 12 -34 24 -32 10 2 17 14 18 28 2 51 2 51 44 29 21
-11 42 -29 45 -40 4 -10 14 -19 24 -19 9 0 23 -6 31 -12 12 -11 12 -10 2 3 -6
9 -9 18 -6 22 3 3 1 15 -6 26 -9 19 -7 22 17 32 34 13 75 8 81 -10 3 -8 0 -11
-7 -7 -41 26 -81 -55 -46 -94 10 -11 21 -17 26 -15 4 3 12 -3 18 -12 8 -13 10
-14 11 -4 0 11 3 12 11 4 12 -12 52 -5 43 8 -3 5 1 9 8 9 7 0 21 7 31 14 15
12 16 16 4 27 -7 8 -16 22 -20 31 -5 15 -11 16 -33 8 -19 -8 -31 -7 -38 0 -7
7 -6 10 2 10 6 0 9 7 5 16 -6 15 12 15 122 0 19 -3 35 -17 30 -26 -5 -8 33
-36 39 -28 2 2 8 12 14 23 13 24 77 31 86 9 3 -8 12 -14 20 -14 8 0 17 -8 21
-19 3 -10 14 -26 25 -36 19 -17 22 -17 82 10 89 39 91 42 71 76 -18 30 -18 30
-103 8 -51 -13 -54 -11 -26 15 25 22 37 54 16 41 -5 -3 -10 -2 -10 4 0 6 13 9
30 8 16 -1 30 -5 30 -9 0 -5 9 -8 19 -8 11 0 23 -5 26 -10 4 -6 11 -8 16 -5
17 11 31 -6 18 -21 -16 -19 -4 -30 16 -14 8 7 22 9 32 6 15 -6 14 -8 -5 -22
-12 -8 -20 -19 -17 -24 3 -5 -23 -22 -57 -38 -68 -32 -103 -65 -94 -88 3 -8 1
-14 -4 -14 -19 0 -10 -32 11 -37 12 -3 18 -11 15 -19 -7 -19 9 -18 25 2 9 12
10 20 2 33 -10 15 -8 17 12 14 12 -3 26 0 29 6 4 5 13 8 22 4 11 -4 12 -8 3
-19 -9 -11 -9 -24 -1 -52 6 -20 14 -48 18 -62 8 -31 42 -80 55 -80 6 0 8 4 5
9 -3 5 0 11 7 14 9 3 13 -3 13 -17 -1 -14 6 -22 22 -24 12 -2 22 -8 22 -13 0
-5 4 -9 10 -9 5 0 7 7 4 15 -4 8 -1 15 5 15 6 0 11 8 11 18 0 9 9 23 21 30 12
8 18 9 14 3 -3 -6 -2 -11 4 -11 47 0 57 44 11 54 -16 3 -30 10 -30 15 0 6 7 8
16 4 11 -4 15 -1 12 12 -5 28 17 28 30 0 6 -14 20 -25 29 -25 17 1 17 1 -1 11
-22 14 -4 29 25 22 21 -6 25 -18 9 -28 -6 -4 -8 -11 -4 -16 3 -6 16 -3 31 7
24 15 26 15 20 0 -4 -9 -2 -16 3 -16 6 0 10 5 10 12 0 9 3 9 12 0 17 -17 38
-15 38 3 0 8 -9 15 -19 15 -26 0 -36 17 -21 35 8 10 8 18 -2 34 -10 17 -10 23
0 33 8 7 12 8 10 2 -6 -21 57 -62 105 -69 39 -6 47 -5 47 9 0 17 16 22 22 6 2
-5 18 -14 36 -19 30 -9 34 -7 42 14 11 29 22 36 60 37 25 1 29 4 25 20 -4 10
-3 18 2 19 48 6 110 4 121 -4 8 -6 12 -6 12 1 0 6 7 9 16 5 8 -3 13 -12 10
-19 -6 -16 13 -31 23 -17 7 10 26 11 36 1 4 -4 13 -4 21 -1 10 4 12 0 7 -12
-5 -15 -2 -17 20 -13 23 5 25 3 16 -14 -16 -29 7 -50 50 -46 29 2 37 8 39 26
3 16 8 22 19 18 8 -3 17 -6 21 -6 3 0 -2 -6 -13 -13 -20 -16 -13 -37 14 -37 9
0 22 -5 28 -11 8 -8 22 -5 52 10 l40 21 18 -26 c15 -23 18 -24 28 -10 7 9 15
13 18 9 4 -3 7 -2 7 3 0 5 7 17 15 28 13 18 15 17 46 -5 21 -14 52 -25 81 -27
47 -3 48 -3 55 28 6 34 30 51 42 31 5 -7 6 -23 4 -35 -6 -29 9 -39 62 -44 26
-2 48 -12 62 -27 20 -21 42 -25 81 -16 1 1 -2 10 -7 20 -9 16 -6 19 22 24 17
2 37 1 42 -3 6 -5 28 -11 49 -16 33 -6 38 -4 33 9 -6 16 19 32 28 18 2 -5 16
-11 30 -13 18 -4 26 0 31 15 4 11 1 23 -7 27 -10 7 -7 16 11 43 14 20 28 33
32 31 4 -3 5 3 1 12 -4 11 -8 13 -11 6 -2 -7 -9 -12 -16 -12 -16 0 -56 42 -56
58 0 7 -5 12 -11 12 -7 0 -17 7 -23 16 -6 8 -26 16 -44 16 -44 1 -50 15 -10
23 18 4 40 9 49 11 10 3 18 -3 22 -15 2 -11 19 -27 36 -35 25 -14 34 -14 51
-4 11 7 20 18 20 25 0 7 6 13 14 13 13 0 15 -22 4 -50 -9 -21 -6 -49 3 -47 16
4 69 -38 64 -51 -8 -23 13 -59 39 -66 14 -3 30 -15 36 -26 6 -11 15 -18 21
-14 5 3 16 1 24 -6 10 -8 19 -5 38 14 l25 25 -39 35 c-28 24 -39 43 -39 62 0
27 1 27 31 -15 l32 -42 15 30 c8 17 19 31 25 31 7 0 7 -4 -1 -12 -18 -18 -14
-46 7 -58 11 -5 23 -19 26 -31 5 -14 10 -17 19 -10 7 6 21 8 33 5 13 -4 22 0
26 9 8 20 -14 67 -31 67 -7 0 -10 -5 -7 -10 3 -6 -1 -10 -9 -10 -27 0 -31 48
-7 74 25 26 27 54 5 63 -9 3 -21 -3 -31 -17 l-16 -23 -8 22 c-5 12 -4 31 3 46
8 19 8 28 -2 40 -15 18 -30 11 -30 -16 0 -26 -60 -28 -60 -1 -1 9 -7 28 -14
41 -10 18 -10 29 -2 47 6 13 14 24 17 24 9 0 21 -41 19 -67 -2 -32 19 -39 38
-12 9 13 16 27 14 32 -3 11 6 9 40 -9 22 -11 33 -13 41 -5 16 16 42 14 57 -4
21 -25 33 -17 26 18 l-6 32 19 -24 c17 -23 20 -23 35 -9 9 9 16 24 16 32 0 9
4 15 9 14 5 -2 9 0 10 5 4 27 -3 38 -31 53 -23 12 -29 19 -18 22 8 3 21 12 28
21 11 14 12 13 7 -5 -3 -14 0 -24 8 -27 21 -8 41 9 33 28 -3 9 0 23 8 30 12
12 15 12 20 -2 4 -8 2 -21 -4 -28 -6 -7 -8 -20 -4 -29 3 -9 1 -16 -5 -16 -15
0 -14 -35 2 -49 8 -6 16 -8 20 -5 3 3 16 -2 30 -11 14 -9 40 -17 59 -19 18 -2
44 -7 58 -13 37 -15 98 -4 115 19 14 21 22 21 98 2 16 -4 33 -1 42 6 14 11 14
15 -2 33 -18 19 -17 19 26 12 l44 -7 -7 36 c-6 30 -4 35 9 30 11 -5 18 0 21
12 4 16 14 19 52 18 50 -2 86 11 77 27 -4 5 11 9 34 9 30 0 41 -4 41 -15 0 -8
-4 -15 -10 -15 -5 0 -10 -11 -10 -24 0 -14 5 -28 10 -31 6 -3 10 -11 10 -17 0
-7 -13 1 -29 16 -28 27 -31 27 -66 15 -50 -18 -55 -37 -19 -66 16 -13 34 -28
41 -33 20 -16 22 -12 13 21 -7 25 -6 30 5 25 8 -3 15 -2 15 2 0 10 52 9 68 -2
8 -4 31 1 59 14 43 20 47 20 80 5 31 -15 34 -20 29 -46 -4 -21 -2 -28 6 -23 7
4 8 3 4 -4 -4 -6 -12 -9 -19 -7 -7 3 -18 -7 -24 -22 -11 -22 -10 -28 5 -39 24
-19 40 -17 69 6 14 11 20 20 14 20 -7 0 -9 4 -6 10 11 18 14 50 4 55 -5 4 -9
1 -9 -5 0 -6 -4 -8 -10 -5 -22 13 -8 32 31 41 47 11 53 24 18 41 -21 10 -24
17 -21 51 3 35 7 39 30 38 15 -1 32 -5 39 -9 17 -11 43 3 43 23 0 20 -11 25
-80 35 -44 7 -110 54 -110 79 0 5 6 2 13 -7 9 -13 19 -15 42 -9 33 9 65 5 65
-8 0 -5 -6 -10 -12 -12 -8 -3 -4 -9 10 -17 20 -11 26 -10 40 6 23 26 52 36 67
23 9 -7 23 -1 51 25 21 19 45 36 53 36 87 7 106 4 118 -22 7 -14 23 -31 35
-38 13 -6 32 -29 43 -49 17 -31 26 -37 58 -40 33 -3 37 -6 32 -23 -6 -18 -3
-20 27 -17 32 3 33 4 32 51 0 52 2 56 22 30 12 -17 14 -17 31 0 17 17 17 18
-5 23 -27 8 -29 24 -2 24 11 0 20 5 20 10 0 20 21 9 30 -15 7 -20 15 -24 37
-22 45 5 77 23 102 56 15 20 30 30 39 26 22 -8 82 14 82 31 0 9 5 12 10 9 6
-4 10 5 10 20 0 22 3 25 20 20 14 -5 20 -2 20 9 0 16 12 21 23 10 8 -8 -13
-45 -35 -62 -24 -18 -23 -36 5 -55 18 -13 19 -16 5 -16 -29 -1 -21 -29 13 -47
26 -13 37 -14 57 -4 19 8 22 14 14 22 -16 16 -15 28 2 28 8 0 21 9 29 21 25
34 -1 91 -30 67 -10 -8 -13 -6 -13 5 0 8 -2 22 -6 30 -3 10 8 18 40 27 26 7
46 19 46 26 0 10 10 13 35 9 36 -4 58 11 31 21 -9 3 -16 10 -16 14 0 7 43 3
70 -7 25 -10 34 -9 53 9 9 10 25 18 35 18 14 -1 14 -3 -4 -13 -12 -7 -19 -18
-17 -25 3 -7 1 -12 -4 -11 -28 5 -35 -3 -31 -31 3 -22 1 -29 -8 -26 -7 3 -18
-2 -24 -9 -17 -20 16 -33 41 -17 10 7 26 9 36 5 16 -6 16 -5 4 11 -13 16 -13
17 0 15 7 -2 24 1 37 5 16 5 29 3 40 -7 9 -8 24 -17 32 -19 11 -4 7 -9 -13
-18 -25 -12 -27 -17 -23 -54 3 -26 13 -47 27 -58 26 -22 40 -23 33 -3 -5 11
-2 13 10 9 11 -4 16 -1 16 10 0 27 17 18 35 -20 24 -51 123 -106 133 -75 3 8
8 6 17 -6 19 -25 35 -7 38 45 2 41 3 42 38 42 19 0 44 6 54 14 11 8 25 12 32
9 7 -3 19 0 27 6 11 9 15 8 20 -5 9 -23 8 -24 -20 -24 -39 0 -66 -18 -62 -43
1 -12 -1 -28 -6 -35 -11 -18 29 -99 51 -106 30 -9 88 -10 102 -2 8 5 11 19 7
37 -6 31 1 34 64 30 14 0 39 -1 57 -1 l32 1 -15 -31 c-9 -16 -19 -32 -25 -35
-5 -4 -9 -24 -9 -46 0 -51 -19 -58 -65 -24 -29 23 -43 27 -78 23 -59 -7 -120
26 -127 67 -6 35 -22 36 -31 3 -6 -20 -7 -21 -14 -5 -4 9 -5 27 -2 38 3 12 3
28 0 36 -9 22 -65 -35 -57 -59 3 -11 0 -18 -8 -19 -7 -1 -20 -2 -28 -3 -8 0
-15 -10 -15 -21 0 -11 -4 -23 -9 -26 -5 -4 1 -23 13 -43 17 -26 30 -36 49 -36
14 0 34 -7 44 -17 17 -15 18 -15 18 0 0 10 -7 17 -15 17 -8 0 -15 5 -15 10 0
33 76 -23 104 -77 8 -17 26 -33 40 -37 18 -4 24 -12 21 -26 -2 -11 0 -20 6
-20 5 0 9 9 9 20 0 11 5 20 10 20 6 0 10 -7 10 -15 0 -10 10 -15 31 -15 19 0
28 -4 24 -11 -4 -6 -14 -8 -22 -5 -8 3 -11 1 -8 -4 9 -15 41 -12 55 5 7 9 24
14 38 13 14 -2 27 3 29 10 3 7 -4 12 -17 12 -13 0 -19 4 -14 11 3 6 15 9 25 6
27 -7 33 9 15 43 -12 26 -12 30 0 30 8 0 14 -9 14 -20 0 -10 10 -24 21 -31 16
-8 18 -13 9 -19 -9 -6 -9 -12 -1 -29 15 -28 57 -28 66 -1 4 11 18 28 31 37 24
15 26 15 40 -6 20 -28 42 -27 55 3 14 29 52 51 74 42 12 -4 9 4 -9 25 -14 17
-26 35 -26 40 0 14 -90 11 -92 -3 0 -7 -2 -18 -2 -23 -2 -13 -45 -61 -48 -54
-24 38 -27 48 -15 52 9 3 9 9 -1 26 -12 20 -11 21 13 15 20 -5 33 0 56 22 16
15 29 37 29 48 0 12 7 30 15 40 15 20 15 20 15 0 0 -27 19 -44 50 -44 14 0 31
-5 37 -11 15 -15 82 -3 89 15 3 8 1 38 -4 67 -10 54 -3 96 8 49 3 -14 12 -25
20 -25 34 0 56 -26 52 -62 -4 -28 -1 -35 17 -40 11 -3 21 -12 21 -20 0 -9 -6
-13 -15 -9 -18 7 -20 -15 -3 -32 16 -16 39 -15 32 2 -3 8 3 16 15 19 12 3 21
13 21 22 0 12 5 15 16 11 9 -3 20 -6 26 -6 6 0 4 -8 -5 -18 -25 -27 -31 -73
-13 -97 9 -11 16 -14 16 -7 0 6 9 12 20 12 11 0 23 7 27 16 3 8 12 13 19 10 8
-3 20 8 30 29 9 19 20 35 25 35 5 0 9 7 9 16 0 8 4 13 9 9 5 -3 19 6 30 21 11
14 24 23 30 20 42 -26 59 78 21 127 -18 22 -19 29 -8 47 15 24 28 26 28 5 0
-8 2 -15 5 -15 11 0 51 48 47 58 -2 7 1 12 6 12 6 0 12 10 14 22 2 13 9 22 17
20 23 -5 49 8 54 28 3 13 14 20 29 21 12 0 33 2 46 5 17 3 25 -3 34 -21 12
-27 48 -35 48 -11 0 9 7 12 20 9 14 -4 21 1 26 21 8 35 24 23 24 -20 0 -38 20
-46 50 -19 14 12 20 12 42 1 20 -11 28 -11 31 -3 2 7 4 -10 3 -38 0 -27 -5
-53 -10 -56 -14 -11 2 -42 19 -35 9 3 15 -1 15 -11 0 -24 31 -42 61 -36 23 4
29 0 45 -36 11 -26 24 -41 36 -41 24 0 23 15 -2 33 -20 14 -19 15 20 21 22 3
40 11 40 16 0 6 4 10 10 10 11 0 1 -30 -17 -48 -15 -16 -17 -37 -3 -62 13 -24
97 -73 111 -64 7 4 7 -1 -1 -16 -9 -17 -9 -25 4 -39 14 -16 14 -19 -1 -33 -10
-11 -13 -23 -8 -35 6 -15 8 -15 13 -3 3 8 16 23 29 34 13 10 22 24 19 32 -3 8
8 20 29 30 38 18 40 24 24 57 -10 22 -10 22 6 2 9 -11 19 -25 23 -31 12 -17
73 -57 79 -50 3 3 -2 8 -11 12 -9 3 -13 10 -10 15 3 5 15 2 27 -6 29 -21 44
-19 50 6 8 28 0 44 -26 58 -22 11 -22 11 1 5 22 -5 23 -4 12 16 -7 12 -21 25
-31 27 -10 3 -19 8 -19 12 0 6 52 33 55 28 1 -1 16 -21 33 -44 19 -25 28 -44
22 -48 -15 -9 -12 -35 4 -35 8 0 17 -13 21 -29 8 -37 35 -63 35 -35 1 19 1 19
11 0 9 -15 13 -16 20 -5 7 11 11 10 22 -5 15 -20 37 -15 37 9 0 8 -8 19 -17
25 -15 10 -14 11 7 6 14 -3 34 2 44 9 10 8 23 12 27 9 4 -2 13 4 19 15 5 11
18 20 28 20 70 2 122 18 122 37 0 8 7 14 15 14 13 0 14 -4 5 -20 -9 -16 -8
-22 4 -26 26 -10 34 4 26 48 -5 24 -8 43 -7 44 1 1 14 4 29 8 20 5 30 1 41
-14 7 -11 17 -17 20 -14 3 4 12 -6 19 -21 10 -23 10 -28 -6 -37 -14 -8 -15
-13 -5 -24 7 -8 20 -12 30 -9 28 9 59 -4 59 -25 0 -29 38 -36 69 -11 14 11 42
30 63 41 31 17 38 18 48 5 10 -12 10 -15 -3 -15 -19 0 -41 -26 -33 -39 5 -7
16 -6 34 1 41 18 49 27 32 38 -11 7 -7 10 16 10 17 0 37 -6 43 -14 10 -12 19
-10 56 11 46 25 54 40 33 61 -8 8 -8 15 2 27 10 12 10 18 -1 32 -11 13 -11 17
-1 20 6 3 12 11 12 18 0 15 -27 28 -41 19 -13 -8 -11 -38 3 -52 23 -23 -2 -24
-30 -1 -16 13 -38 29 -48 36 -18 11 -18 12 4 12 28 1 88 39 102 66 l11 20 -5
-20 c-2 -11 -5 -26 -7 -34 -3 -10 6 -14 31 -15 19 -1 37 -4 40 -7 3 -4 18 -9
35 -10 24 -3 30 0 30 16 0 11 7 20 15 20 8 0 29 9 47 20 27 15 30 21 20 34
-10 12 -9 12 11 0 21 -13 25 -12 43 10 26 32 24 49 -8 63 l-28 11 30 6 c21 4
31 13 33 29 3 18 -1 22 -23 22 -15 0 -24 -4 -20 -10 4 -6 -8 -27 -25 -47 -21
-23 -28 -38 -20 -43 6 -4 -3 -7 -20 -7 -16 0 -30 1 -30 3 0 1 7 15 15 30 8 16
15 39 15 51 0 14 8 24 22 29 12 3 28 13 36 21 12 12 12 16 -2 32 -24 26 -19
41 13 41 25 0 30 4 29 22 -1 13 -6 29 -11 36 -16 21 -30 13 -24 -15 5 -26 4
-26 -9 -8 -18 24 -18 30 1 45 21 18 19 37 -9 65 l-24 24 23 25 c13 14 20 27
17 30 -3 3 3 6 12 6 13 0 17 6 13 20 -3 13 0 20 9 20 9 0 14 11 14 29 0 17 6
31 16 35 12 5 14 14 9 37 -5 22 -3 34 6 41 11 7 11 8 -1 7 -8 -1 -28 3 -43 9
-16 7 -32 12 -37 12 -15 0 -16 45 -1 56 12 10 12 16 2 43 -8 17 -20 31 -29 31
-9 0 -5 7 12 21 22 17 27 28 24 58 -2 30 -9 39 -38 53 -22 11 -45 36 -62 67
l-28 49 24 6 c35 9 43 54 17 97 -13 22 -19 45 -16 62 3 16 1 27 -5 27 -7 0 -9
8 -5 19 3 11 1 22 -5 26 -8 5 -4 15 10 31 13 12 22 34 22 48 0 30 -29 79 -41
71 -5 -3 -12 2 -15 11 -9 23 -8 24 23 24 29 0 57 21 44 34 -4 3 -8 16 -10 27
-2 15 6 24 32 35 19 8 41 27 50 44 15 29 15 31 -7 40 -13 5 -18 9 -11 9 17 1
27 40 13 55 -14 18 -46 9 -68 -18 -23 -28 -39 -30 -65 -9 -26 21 -34 63 -12
63 8 0 15 3 16 8 0 4 2 15 4 24 2 10 -1 20 -6 24 -16 9 -10 24 11 24 29 0 54
43 41 69 -17 30 -13 59 8 71 26 13 31 13 31 -4 0 -24 22 -30 37 -11 15 22 18
85 3 85 -5 0 -10 -9 -10 -20 0 -11 -4 -20 -10 -20 -5 0 -10 5 -10 10 0 6 -7
10 -15 10 -9 0 -18 7 -21 15 -4 8 -10 12 -15 9 -5 -3 -8 7 -7 23 1 16 -1 34
-6 41 -4 8 -1 12 9 12 13 0 15 6 10 31 -5 24 -2 34 15 49 20 17 20 19 4 28
-13 7 -17 21 -16 56 1 25 -2 46 -8 46 -5 0 -10 6 -10 14 0 8 -7 17 -15 20 -12
4 -14 10 -5 25 7 15 6 23 -6 36 -9 8 -13 23 -10 32 4 8 1 22 -5 29 -7 8 -12
33 -12 57 1 23 -4 50 -9 60 -10 20 -34 23 -41 5 -4 -9 -6 -8 -6 2 -1 9 3 20 9
26 5 5 12 23 15 39 2 17 7 42 11 57 4 20 0 35 -15 55 -14 17 -20 35 -17 49 8
29 -28 74 -59 74 -27 0 -52 25 -35 35 7 4 9 18 6 31 -5 17 -2 24 8 24 7 0 21
11 30 25 14 22 19 23 36 12 18 -10 24 -8 50 20 33 35 37 48 16 60 -25 15 -35
50 -34 114 1 76 -7 104 -37 137 -23 24 -23 53 -2 80 7 9 7 16 -1 24 -12 12 7
38 28 38 17 0 35 49 23 61 -15 15 -41 -10 -35 -33 3 -12 -1 -18 -12 -18 -20 0
-21 33 -1 50 8 7 15 24 15 37 0 22 -3 24 -32 18 -30 -6 -32 -6 -17 9 12 13 21
15 43 7 14 -6 29 -18 32 -26 4 -8 17 -15 30 -15 24 0 24 1 -10 35 -24 23 -45
35 -63 35 -30 0 -31 3 -33 88 -1 38 -17 42 -30 7 -14 -37 -31 -32 -18 6 6 17
20 34 31 38 14 5 17 10 9 15 -15 9 -6 26 14 26 8 0 12 -4 9 -10 -3 -5 0 -10 8
-10 8 0 17 9 20 19 3 13 17 22 41 26 42 8 43 13 15 49 -16 20 -18 30 -10 40 8
10 7 23 -4 50 -9 20 -15 42 -14 49 3 26 -2 35 -21 40 -21 5 -28 27 -9 27 6 0
9 7 5 15 -3 9 0 15 10 15 8 0 12 4 9 10 -3 6 -2 10 4 10 5 0 13 -4 16 -10 12
-19 23 -10 27 23 2 23 -2 39 -15 53 -18 19 -18 18 -12 -11 l6 -30 -16 28 c-9
15 -20 27 -25 27 -6 0 -10 7 -10 15 0 11 7 14 24 9 18 -4 28 0 41 18 9 13 15
16 14 8 -4 -17 21 -60 34 -60 5 0 8 10 7 23 -4 38 0 47 16 47 10 0 14 6 10 15
-3 8 1 18 9 22 11 7 11 11 -1 28 -13 17 -16 18 -24 5 -8 -12 -10 -11 -10 8 0
16 -6 22 -23 22 -13 0 -28 -5 -35 -12 -15 -15 -15 -12 3 37 8 22 14 32 15 23
0 -15 4 -15 35 5 20 13 32 28 29 36 -2 7 1 20 7 28 10 11 8 15 -10 20 -27 7
-22 27 7 31 26 4 27 10 8 31 -15 17 -10 75 5 65 5 -3 9 0 9 5 0 6 -9 11 -20
11 -12 0 -20 7 -20 16 0 9 -9 23 -21 33 l-21 17 26 26 c23 22 25 29 16 54 -9
23 -13 25 -20 14 -6 -8 -10 -10 -10 -5 1 6 7 18 15 28 7 11 11 26 8 35 -4 9
-2 13 4 9 6 -4 16 0 23 8 10 12 10 21 1 41 -6 14 -11 36 -11 49 0 14 -6 25
-12 25 -7 0 -21 14 -30 31 -20 34 -23 53 -8 44 6 -3 10 -1 10 4 0 6 -4 11 -8
11 -5 0 -13 9 -18 20 -9 19 -10 18 -53 -8 -39 -25 -48 -27 -78 -17 -27 8 -36
17 -44 50 -8 28 -8 40 0 43 17 6 13 38 -6 53 -15 13 -16 11 -11 -14 l6 -29
-30 32 c-16 18 -34 30 -41 27 -7 -2 -23 7 -37 21 -14 14 -17 20 -7 12 15 -11
20 -10 37 5 30 28 8 45 -56 45 -55 0 -64 6 -42 28 9 9 7 16 -10 32 -22 21 -44
28 -24 8 14 -14 16 -28 3 -28 -16 0 -23 40 -10 56 7 8 20 12 30 9 10 -4 24 -3
29 0 15 9 -7 35 -29 35 -9 0 -27 12 -40 25 -13 14 -18 25 -12 25 6 0 11 7 11
15 0 8 6 14 13 13 16 -4 12 53 -5 64 -41 24 -41 24 -23 52 10 15 13 26 6 26
-21 0 -11 16 12 18 33 5 40 4 65 -3 14 -5 22 -3 22 4 0 6 -4 11 -10 11 -5 0
-10 5 -10 11 0 5 5 7 12 3 8 -5 9 -2 4 12 -13 34 -12 38 14 42 40 6 52 20 38
46 -10 19 -10 20 5 7 21 -17 51 -7 43 15 -10 25 10 41 43 36 22 -3 32 -12 40
-33 10 -29 31 -40 31 -16 0 6 3 22 6 35 5 17 2 22 -14 22 -11 0 -22 7 -26 15
-3 9 0 15 10 15 11 0 14 6 8 23 -7 25 -27 41 -32 27 -2 -5 -13 -5 -29 1 -19 7
-24 6 -20 -3 2 -7 9 -12 14 -11 14 3 9 -50 -6 -55 -9 -3 -11 1 -7 15 4 13 -1
26 -14 38 -11 10 -20 13 -20 7 0 -6 5 -12 12 -14 6 -2 9 -10 7 -16 -3 -9 -11
-7 -27 8 -12 12 -22 16 -22 9 0 -7 -3 -9 -7 -6 -3 4 -17 0 -29 -8 -40 -26 -54
-11 -50 57 3 33 7 62 10 65 3 3 14 -12 23 -33 13 -26 25 -40 41 -41 13 -2 22
3 22 11 0 8 8 17 18 19 16 4 16 5 0 6 -10 0 -18 6 -18 11 0 6 -11 8 -25 4 -21
-5 -25 -3 -25 15 0 12 -5 21 -11 21 -5 0 -7 4 -4 10 8 13 45 13 45 0 0 -19 20
-10 31 14 6 13 19 27 28 30 55 21 102 64 99 90 -2 13 2 20 10 18 7 -1 39 -6
71 -10 61 -9 59 -11 64 48 2 19 -3 26 -21 28 -22 3 -23 4 -5 17 10 8 26 15 37
15 13 0 17 5 13 19 -3 12 1 22 9 25 18 7 18 35 -1 42 -8 3 -24 -1 -37 -10 -30
-22 -36 -20 -31 8 3 13 0 27 -6 30 -16 10 -13 26 4 26 8 0 15 6 16 13 0 6 4 2
9 -10 9 -23 30 -32 30 -13 0 6 6 10 14 10 17 0 31 49 17 63 -6 6 -16 4 -27 -7
-13 -13 -19 -14 -25 -5 -4 7 -1 19 7 26 16 17 18 47 4 73 -12 22 -3 50 15 50
19 0 26 27 10 40 -22 19 -69 -9 -73 -43 -3 -20 1 -27 15 -28 16 0 15 -2 -4
-16 -15 -10 -23 -26 -23 -45 0 -16 -7 -40 -16 -53 -9 -14 -14 -32 -10 -40 5
-14 3 -14 -15 -1 -16 11 -28 12 -47 5 -27 -11 -30 -9 -46 23 -6 13 -22 24 -34
26 -32 5 -27 19 8 27 21 5 30 12 28 23 -2 10 3 16 10 14 6 -1 12 6 12 15 0 25
40 42 68 30 27 -12 36 -5 27 23 -4 14 -12 19 -24 15 -12 -4 -25 7 -45 37 -15
24 -22 37 -15 31 7 -7 18 -13 23 -13 6 1 1 9 -11 19 l-21 18 24 31 c19 24 30
30 53 27 40 -5 70 18 55 42 -6 10 -23 19 -38 21 -21 3 -26 -1 -26 -17 0 -12
-7 -21 -15 -21 -8 0 -15 2 -15 5 0 15 30 75 37 74 28 -5 44 3 41 19 -2 9 5 21
17 27 11 6 20 19 20 29 0 11 11 23 25 28 21 8 39 23 81 71 6 6 -23 47 -30 43
-9 -6 -7 29 3 54 5 11 -2 20 -21 28 -22 9 -23 11 -5 8 20 -4 28 8 23 37 0 4 6
7 14 7 9 0 12 6 9 15 -4 10 0 15 11 15 14 0 16 6 11 26 -4 15 -14 33 -21 41
-19 19 -19 34 0 27 11 -5 15 1 16 22 2 37 3 45 13 67 5 10 5 21 1 25 -10 10
-47 -39 -40 -55 3 -7 8 -19 11 -27 4 -11 0 -13 -15 -9 -12 3 -28 0 -36 -7 -10
-9 -15 -9 -15 -1 0 6 5 11 10 11 7 0 7 6 2 18 -5 9 -12 34 -16 55 -6 30 -4 37
9 37 8 0 15 -6 15 -14 0 -7 6 -19 13 -25 20 -16 40 31 42 97 2 51 -7 68 -19
36 -5 -14 -7 -14 -22 0 -13 14 -20 14 -47 2 -35 -14 -57 -11 -70 10 -4 8 -18
14 -31 14 -35 0 -38 11 -10 33 14 11 30 29 34 41 7 17 9 18 9 4 1 -24 16 -23
42 3 26 26 19 64 -17 97 -32 28 -40 28 -61 -5 -17 -25 -17 -26 5 -41 12 -8 22
-19 22 -24 0 -7 -4 -7 -12 0 -9 6 -28 6 -59 -2 -31 -8 -53 -9 -68 -3 -16 8
-26 6 -41 -8 -11 -10 -20 -24 -20 -32 0 -10 -8 -8 -29 9 -15 13 -26 29 -23 36
2 6 -1 12 -6 12 -15 0 -42 -40 -42 -62 0 -9 -10 -20 -22 -24 -12 -3 -28 -13
-36 -20 -17 -18 -24 -17 -48 1 -11 8 -14 15 -6 15 16 0 16 36 0 46 -7 4 -28
10 -47 13 -23 4 -36 13 -42 29 -6 15 -5 21 1 17 6 -3 14 -3 20 0 12 8 -42 61
-72 70 -12 4 -29 14 -37 22 -16 17 -67 11 -114 -14 -31 -16 -42 -12 -42 15 0
10 -10 18 -25 20 -13 2 -30 11 -36 20 -12 16 -13 16 -19 0 -4 -10 -11 -18 -17
-18 -5 0 -7 4 -4 9 3 5 0 14 -8 20 -10 9 -21 8 -42 -1 -16 -7 -32 -16 -35 -21
-3 -4 -17 -3 -31 4 -20 8 -31 8 -49 -1 l-23 -13 27 -23 c22 -19 24 -24 12 -34
-8 -7 -15 -9 -15 -4 0 5 -13 9 -30 9 -17 0 -30 -5 -30 -12 0 -21 -35 -9 -70
24 -19 18 -38 29 -43 26 -6 -4 -4 -11 4 -17 17 -14 42 -56 33 -56 -4 0 -13 8
-20 18 -19 26 -40 2 -24 -28 16 -30 8 -34 -29 -15 -17 8 -32 14 -32 13 -2 -4
-8 -37 -15 -79 -5 -31 -10 -37 -30 -35 -17 1 -22 6 -19 17 6 17 -31 39 -65 39
-24 0 -26 13 -6 30 8 6 12 18 9 26 -4 12 0 14 19 9 19 -5 28 -1 41 19 10 14
17 30 17 36 0 20 -31 22 -52 4 l-21 -19 17 27 c17 26 15 68 -4 68 -27 0 -40
-15 -40 -45 0 -22 -9 -42 -30 -64 -17 -17 -34 -30 -39 -27 -10 7 -41 -30 -33
-40 4 -5 -1 -2 -11 5 -16 13 -19 12 -24 -7 -3 -15 -13 -22 -29 -22 -13 0 -26
1 -28 3 -2 1 -14 -7 -25 -17 -18 -17 -21 -17 -15 -3 3 9 10 17 15 17 5 0 9 7
9 16 0 12 -4 14 -12 7 -7 -6 -23 -9 -35 -8 -13 1 -23 -3 -23 -8 0 -5 -9 -7
-19 -4 -27 7 -36 -21 -15 -44 9 -10 14 -25 11 -34 -9 -22 -26 -18 -20 5 4 14
0 20 -11 20 -9 0 -16 -4 -16 -10 0 -5 -7 -10 -15 -10 -19 0 -20 -19 -1 -26 8
-3 11 -15 8 -30 -2 -13 1 -31 8 -39 14 -17 0 -21 -17 -4 -13 13 -57 -6 -48
-22 4 -5 1 -9 -5 -9 -7 0 -9 7 -6 16 8 21 -11 44 -38 45 -15 1 -17 2 -4 6 27
7 32 36 8 55 -12 9 -20 25 -18 34 2 12 -5 18 -24 21 -29 4 -36 -5 -17 -24 8
-8 7 -13 -2 -18 -7 -5 -17 -1 -24 8 -7 10 -25 17 -40 17 -22 0 -26 -3 -20 -17
12 -27 8 -51 -10 -69 -12 -12 -13 -20 -6 -27 6 -6 11 -15 11 -19 0 -13 -58 -9
-63 5 -3 9 -9 9 -27 -1 -30 -18 -40 -5 -13 18 38 31 33 45 -16 45 -46 0 -70
22 -34 31 11 3 37 26 57 50 29 35 35 48 27 58 -7 8 -10 19 -9 26 2 7 -3 15
-11 18 -9 3 -12 0 -9 -10 4 -8 -2 -20 -13 -26 -12 -8 -19 -8 -19 -2 0 5 -7 10
-16 10 -10 0 -14 -6 -10 -15 8 -22 -27 -19 -48 4 -16 18 -16 18 9 14 17 -4 25
-1 25 9 0 18 -34 51 -43 41 -4 -3 -7 -1 -7 5 0 7 -4 12 -10 12 -5 0 -10 -7
-10 -16 0 -12 -7 -14 -28 -9 -31 6 -56 -12 -43 -33 5 -8 16 -9 41 -2 18 5 36
7 39 5 2 -3 -1 -5 -7 -5 -16 0 -53 -42 -48 -55 2 -6 -8 -10 -22 -10 -21 0 -29
-8 -47 -53 -12 -29 -24 -49 -28 -46 -13 13 -7 30 22 75 31 46 31 64 -1 56 -10
-3 -33 -1 -50 3 -21 7 -38 5 -58 -5 -18 -9 -30 -11 -37 -4 -6 6 -25 18 -44 27
-19 9 -40 29 -47 45 -13 27 -26 34 -36 18 -7 -11 59 -104 81 -113 15 -5 15 -7
2 -7 -9 -1 -35 22 -58 49 -23 28 -50 50 -60 50 -9 0 -22 5 -29 12 -9 9 -13 7
-18 -8 -4 -10 -16 -26 -27 -36 -17 -13 -19 -19 -9 -31 10 -11 9 -17 -3 -27 -8
-7 -15 -28 -15 -46 0 -34 -13 -46 -23 -20 -10 25 -61 5 -96 -36 -27 -31 -41
-36 -41 -13 0 8 -5 15 -11 15 -5 0 -9 8 -7 18 4 23 -41 82 -58 75 -8 -3 -14 0
-14 6 0 14 -10 14 -30 1 -10 -7 -12 -12 -4 -17 6 -5 15 -19 19 -33 7 -22 6
-23 -8 -11 -14 11 -18 11 -23 -4 -4 -10 -1 -21 7 -25 21 -13 4 -23 -19 -11
-11 6 -22 7 -26 4 -3 -4 -12 2 -20 12 -16 22 -46 14 -46 -13 0 -10 -14 -36
-30 -59 -18 -25 -28 -47 -24 -57 5 -13 -1 -16 -26 -16 -17 0 -43 -9 -58 -20
-18 -15 -28 -17 -33 -9 -4 7 -17 9 -34 5 -21 -5 -28 -3 -32 12 -5 22 -59 56
-73 47 -6 -3 -10 -2 -10 3 0 26 -42 55 -83 58 -36 2 -46 -2 -70 -27 -27 -30
-28 -49 -2 -49 8 0 17 -5 21 -12 5 -8 -2 -9 -23 -5 -27 5 -31 3 -42 -30 -11
-30 -15 -33 -23 -20 -6 12 -16 15 -34 11 -16 -4 -31 -1 -42 9 -9 9 -21 17 -27
19 -5 2 -10 10 -10 18 0 8 -10 19 -22 25 -12 5 -26 20 -32 32 -6 13 -23 28
-37 33 -15 6 -24 13 -21 17 3 3 23 -4 43 -16 45 -27 63 -16 48 26 -9 25 -15
28 -48 26 -38 -3 -38 -2 -22 16 12 13 15 27 11 40 -7 22 -29 28 -40 11 -7 -12
-35 -1 -32 13 1 6 -6 13 -16 15 -10 2 -16 -2 -15 -9 2 -7 -3 -14 -9 -15 -7 -1
-16 -2 -19 -3 -4 0 -1 -8 6 -16 7 -8 11 -15 9 -16 -2 0 -17 -2 -34 -4 -24 -4
-26 -3 -10 5 23 10 23 10 -28 15 -26 3 -40 0 -43 -9 -6 -16 -19 -15 -51 2 -30
16 -40 15 -63 -8 -18 -18 -21 -18 -26 -5 -12 30 -42 37 -80 19 -32 -15 -36
-15 -47 -1 -10 14 -15 14 -30 3 -14 -11 -16 -19 -8 -40 8 -19 7 -25 -2 -23 -7
1 -11 -7 -10 -18 1 -13 -4 -21 -15 -21 -9 -1 -24 -3 -32 -5 -11 -3 -15 7 -16
38 -1 24 3 46 9 50 6 4 8 0 4 -10 -4 -11 -1 -17 9 -17 26 0 30 32 6 48 -12 8
-22 21 -22 28 0 16 -16 19 -25 4 -5 -9 -69 -5 -85 5 -5 3 -19 1 -32 -4 -12 -4
-32 -5 -43 -1 -14 5 -28 0 -47 -19 -15 -14 -24 -28 -19 -31 4 -3 13 -18 18
-35 6 -19 16 -29 26 -27 11 2 19 -7 23 -23 5 -19 11 -24 24 -20 15 5 18 0 18
-31 0 -52 23 -72 64 -56 21 8 36 8 42 2 6 -6 25 -10 43 -10 26 0 36 5 43 23 8
20 9 19 9 -10 1 -25 -2 -31 -14 -27 -23 9 -46 -15 -39 -42 8 -30 -1 -43 -26
-37 -11 3 -17 9 -14 14 3 5 -1 9 -10 9 -8 0 -16 6 -19 13 -3 8 -13 3 -30 -15
-28 -30 -37 -27 -37 13 0 32 -15 46 -33 31 -7 -6 -16 -10 -22 -9 -5 1 -15 -14
-22 -33 -8 -26 -13 -31 -18 -19 -3 10 -6 23 -4 30 4 32 -1 41 -21 36 -13 -3
-20 0 -20 9 0 7 -6 11 -14 8 -8 -3 -17 0 -22 7 -5 8 -3 10 6 4 10 -6 12 -3 8
13 -4 13 -1 22 6 22 15 0 38 38 30 51 -4 6 -15 4 -30 -5 -13 -9 -29 -16 -36
-16 -7 1 4 10 25 21 20 11 37 23 37 28 0 16 -33 22 -49 8 -27 -23 -49 -27 -47
-9 1 19 -20 23 -48 9 -16 -8 -18 -6 -13 14 4 13 7 27 7 32 0 4 9 7 20 7 11 0
20 5 20 10 0 6 7 10 15 10 13 0 14 4 5 21 -14 25 -3 41 11 16 13 -23 34 -22
69 5 39 28 38 37 -2 35 -22 -1 -35 -8 -38 -19 -4 -15 -11 -13 -49 17 -66 53
-81 47 -56 -20 7 -16 6 -18 -6 -7 -17 16 -30 16 -23 -1 2 -7 -4 -13 -16 -14
-11 -1 -20 2 -20 8 0 5 -9 9 -20 9 -11 0 -20 -4 -20 -10 0 -5 -5 -10 -11 -10
-5 0 -7 5 -4 10 3 6 2 10 -3 10 -15 0 -22 -26 -10 -38 16 -16 0 -36 -17 -22
-16 13 -39 4 -29 -12 4 -6 0 -14 -7 -19 -12 -7 -12 -12 -1 -29 11 -18 11 -25
0 -38 -22 -28 -29 -30 -59 -15 -22 11 -33 12 -43 4 -8 -7 -19 -10 -26 -9 -22
5 -36 -30 -22 -53 16 -25 10 -36 -8 -14 -14 17 -46 20 -55 5 -7 -11 71 -33 96
-27 11 3 22 1 25 -5 3 -5 20 -6 37 -2 27 6 30 4 20 -8 -13 -15 -7 -58 8 -58 5
0 6 -6 4 -12 -3 -7 -20 -13 -38 -13 -25 0 -37 -7 -58 -36 -15 -19 -33 -36 -40
-37 -33 -2 -67 -9 -76 -15 -6 -4 -32 8 -59 25 -27 18 -58 33 -69 35 -49 7 -96
27 -91 39 3 8 1 16 -4 19 -6 4 -10 -1 -10 -9 0 -8 -10 -18 -22 -22 -13 -4 -26
-12 -31 -18 -5 -7 -14 -3 -27 12 -16 19 -23 21 -40 12 -23 -12 -27 -1 -9 29
16 24 4 68 -21 76 -11 4 -29 0 -42 -9 -28 -20 -38 -20 -38 -1 0 8 5 15 10 15
6 0 10 7 10 16 0 11 -6 14 -21 9 -15 -5 -22 -2 -26 14 -3 12 -12 21 -20 21
-14 0 -63 -32 -95 -62 -23 -23 -33 -23 -57 3 -11 12 -31 22 -45 22 -14 0 -26
3 -26 8 0 5 7 9 16 9 8 0 13 4 10 9 -3 4 -24 7 -46 6 -33 -2 -40 1 -40 16 0
26 -10 24 -35 -7 l-21 -26 -34 31 c-19 17 -37 31 -41 31 -4 0 -10 11 -13 24
-9 35 -53 84 -79 88 -15 2 -22 10 -23 27 -2 44 -59 71 -104 50 -3 -1 -16 -2
-30 -3 -18 -1 -25 -7 -25 -21 0 -18 -29 -40 -47 -37 -4 1 -33 -10 -65 -25 -39
-19 -58 -23 -61 -15 -2 8 -13 10 -30 6 l-27 -7 20 21 c41 43 46 53 42 87 -2
19 -7 38 -10 42 -4 3 -7 16 -7 27 0 26 -28 68 -40 61 -12 -7 -1 -36 19 -53 14
-12 14 -13 -4 -7 -11 4 -31 8 -45 9 -20 1 -25 6 -22 26 1 18 -1 21 -7 11 -7
-11 -11 -10 -19 5 -5 9 -18 19 -28 20 -16 2 -15 0 5 -17 21 -17 20 -24 -2 -20
-13 2 -47 -19 -47 -29 0 -6 7 -10 16 -10 13 0 14 -3 5 -14 -6 -7 -9 -21 -5
-30 9 -25 -26 -20 -61 9 l-30 25 33 6 c30 6 33 10 30 38 -3 27 -7 31 -36 34
-25 3 -37 -2 -52 -20 l-19 -23 -21 21 c-12 12 -23 34 -25 49 -4 37 -31 58 -57
44 -22 -12 -15 -30 10 -23 10 4 13 2 7 -3 -5 -4 -13 -12 -17 -16 -3 -5 -25 8
-48 29 -35 32 -44 36 -58 26 -10 -7 -32 -22 -50 -33 -24 -16 -31 -26 -26 -41
5 -18 1 -19 -68 -16 -73 3 -73 3 -76 -24 -4 -35 -30 -58 -42 -38 -7 12 -10 12
-15 -2 -4 -9 -13 -14 -21 -11 -8 3 -14 -1 -14 -11 0 -10 -6 -13 -15 -10 -11 5
-15 -1 -15 -24 0 -16 -7 -35 -15 -42 -13 -11 -19 -8 -40 14 -14 15 -25 33 -25
41 0 8 -4 16 -9 19 -5 3 -7 15 -4 26 3 11 2 28 -1 37 -6 15 -9 15 -17 3 -8
-12 -9 -9 -5 10 3 14 6 30 6 35 0 6 5 3 10 -5 8 -12 10 -11 10 6 0 12 -7 27
-15 34 -8 7 -15 19 -15 26 0 8 -5 14 -12 14 -6 0 -9 -3 -5 -6z m-773 -174 c0
-3 -9 -16 -19 -29 -13 -17 -24 -22 -37 -17 -18 7 -18 8 1 22 19 14 19 15 -3
20 -21 6 -27 15 -17 26 6 6 75 -14 75 -22z m1710 -1 c0 -5 -4 -9 -10 -9 -5 0
-10 7 -10 16 0 8 5 12 10 9 6 -3 10 -10 10 -16z m-3940 -73 c0 -3 -4 -8 -10
-11 -5 -3 -10 -1 -10 4 0 6 5 11 10 11 6 0 10 -2 10 -4z m9230 -43 c0 -5 -5
-15 -10 -23 -8 -12 -10 -11 -10 8 0 12 5 22 10 22 6 0 10 -3 10 -7z m-450 -42
c0 -6 -4 -13 -10 -16 -5 -3 -10 1 -10 9 0 9 5 16 10 16 6 0 10 -4 10 -9z m440
-10 c0 -11 -49 -21 -55 -10 -3 4 3 10 12 12 30 8 43 7 43 -2z m230 -15 c0 -2
-3 -11 -6 -19 -6 -16 -44 -12 -44 5 0 5 5 6 10 3 6 -3 10 -1 10 4 0 6 7 11 15
11 8 0 15 -2 15 -4z m-1733 -12 c-3 -3 -12 -4 -19 -1 -8 3 -5 6 6 6 11 1 17
-2 13 -5z m-1944 -54 c7 -28 26 -25 20 3 l-5 22 17 -23 c11 -15 24 -22 36 -19
22 6 26 -15 5 -32 -10 -8 -20 -8 -41 3 -15 8 -34 12 -42 9 -8 -3 -19 0 -23 7
-11 18 -44 4 -36 -15 3 -8 1 -15 -4 -15 -6 0 -10 4 -10 9 0 5 -9 11 -21 14
-18 5 -19 9 -9 27 8 15 15 18 24 11 8 -7 20 -6 36 4 35 19 47 18 53 -5z m1427
-30 c0 -5 -7 -7 -15 -4 -8 4 -15 8 -15 10 0 2 7 4 15 4 8 0 15 -4 15 -10z
m-45 -10 c-3 -5 -12 -10 -18 -10 -7 0 -6 4 3 10 19 12 23 12 15 0z m-1470 -36
c14 -9 25 -21 25 -26 0 -7 -5 -6 -13 1 -8 6 -17 8 -20 4 -4 -3 -13 0 -22 7
-10 8 -15 9 -15 1 0 -6 -11 -10 -25 -9 -32 3 -33 18 -1 18 14 0 28 5 31 10 8
13 11 13 40 -6z m5145 -2634 c0 -13 -6 -20 -17 -19 -11 0 -13 3 -5 6 6 2 12
11 12 19 0 8 2 14 5 14 3 0 5 -9 5 -20z m-190 -490 c0 -5 -4 -10 -10 -10 -5 0
-10 5 -10 10 0 6 5 10 10 10 6 0 10 -4 10 -10z m63 -20 c14 -11 31 -20 37 -20
7 0 10 -6 7 -14 -3 -7 2 -24 10 -36 15 -21 15 -22 -5 -11 -11 6 -29 11 -39 11
-17 0 -43 40 -43 66 0 7 -6 15 -12 17 -9 4 -7 6 3 6 9 1 28 -8 42 -19z m-15
-241 c-2 -6 -8 -10 -13 -10 -5 0 -11 4 -13 10 -2 6 4 11 13 11 9 0 15 -5 13
-11z m-48 -8 c0 -12 -26 -21 -58 -20 -25 0 -25 1 8 13 45 17 50 18 50 7z
m-11690 -302 c3 -21 11 -34 20 -34 8 0 21 -5 29 -9 12 -8 10 -11 -8 -18 -13
-4 -25 -17 -28 -28 -3 -11 -12 -20 -20 -20 -10 0 -12 8 -8 33 4 17 2 51 -3 75
-8 32 -7 42 1 39 7 -2 14 -19 17 -38z m143 -612 c-7 -11 -23 2 -23 19 0 12 2
12 14 2 8 -7 12 -16 9 -21z m82 -207 c3 -5 1 -10 -4 -10 -6 0 -11 5 -11 10 0
6 2 10 4 10 3 0 8 -4 11 -10z m11685 -1459 c0 -12 -20 -25 -27 -18 -7 7 6 27
18 27 5 0 9 -4 9 -9z m-12020 -727 c0 -22 -16 -17 -17 6 -1 11 2 18 8 15 5 -4
9 -13 9 -21z m10060 -780 c0 -2 -7 -4 -15 -4 -8 0 -15 4 -15 10 0 5 7 7 15 4
8 -4 15 -8 15 -10z m-9695 -283 c3 -5 1 -12 -5 -16 -5 -3 -10 1 -10 9 0 18 6
21 15 7z m-42 -46 c-3 -9 -8 -14 -10 -11 -3 3 -2 9 2 15 9 16 15 13 8 -4z
m2502 -145 c3 -6 -1 -7 -9 -4 -18 7 -21 14 -7 14 6 0 13 -4 16 -10z m425 -9
c0 -5 3 -17 7 -26 5 -14 2 -16 -18 -10 -13 4 -28 12 -34 18 -7 7 -4 8 8 4 11
-4 17 -1 17 8 0 8 5 15 10 15 6 0 10 -4 10 -9z m-29 -97 c-12 -9 -21 -26 -21
-41 0 -22 -2 -24 -15 -13 -14 11 -14 16 2 39 21 34 47 53 52 40 2 -6 -6 -17
-18 -25z m59 -264 c0 -5 -4 -10 -10 -10 -5 0 -10 5 -10 10 0 6 5 10 10 10 6 0
10 -4 10 -10z"/>
<path d="M4690 8920 c0 -5 5 -10 10 -10 6 0 10 5 10 10 0 6 -4 10 -10 10 -5 0
-10 -4 -10 -10z"/>
<path d="M4787 8913 c-4 -3 -7 -11 -7 -17 0 -6 5 -5 12 2 6 6 9 14 7 17 -3 3
-9 2 -12 -2z"/>
<path d="M10632 8909 c2 -6 8 -10 13 -10 5 0 11 4 13 10 2 6 -4 11 -13 11 -9
0 -15 -5 -13 -11z"/>
<path d="M11218 8893 c-7 -9 -6 -14 5 -19 25 -9 51 0 55 19 3 13 -3 16 -23 15
-14 -1 -31 -8 -37 -15z"/>
<path d="M11360 8876 c0 -10 9 -16 21 -16 24 0 21 23 -4 28 -10 2 -17 -3 -17
-12z"/>
<path d="M4738 8866 c-25 -19 -22 -29 7 -24 14 3 25 1 25 -3 0 -5 4 -9 9 -9 5
0 4 11 -2 25 -14 29 -16 29 -39 11z"/>
<path d="M11255 8862 c-41 -9 -40 -40 1 -67 22 -14 26 -14 45 4 26 24 22 66
-6 67 -11 0 -29 -2 -40 -4z"/>
<path d="M9446 8791 c-14 -5 -16 -10 -8 -15 16 -10 15 -27 0 -21 -9 4 -13 -6
-14 -27 0 -18 -4 -45 -8 -60 -6 -22 -4 -29 9 -34 10 -4 26 -2 36 4 10 7 24 9
32 6 8 -3 19 1 25 9 13 15 -9 66 -34 80 -14 8 -13 10 1 21 15 11 15 13 -2 28
-11 10 -25 13 -37 9z"/>
<path d="M9504 8788 c-4 -7 2 -18 14 -26 12 -8 22 -21 22 -28 0 -14 36 -19 64
-8 18 7 10 34 -10 34 -8 0 -14 3 -14 8 0 7 -47 32 -61 32 -4 0 -11 -5 -15 -12z"/>
<path d="M10305 8750 c11 -12 13 -20 6 -20 -7 0 -9 -5 -5 -11 5 -8 10 -6 16 5
6 11 4 21 -6 31 -22 22 -32 18 -11 -5z"/>
<path d="M9110 8749 c0 -5 -4 -8 -9 -4 -5 3 -16 -2 -25 -11 -9 -8 -20 -13 -26
-9 -6 3 -7 0 -4 -9 11 -27 46 -31 66 -6 20 24 24 50 8 50 -5 0 -10 -5 -10 -11z"/>
<path d="M8590 8740 c0 -5 5 -10 10 -10 6 0 10 -6 10 -14 0 -19 32 -30 42 -14
12 20 3 33 -21 31 -11 -2 -21 2 -21 7 0 6 -4 10 -10 10 -5 0 -10 -4 -10 -10z"/>
<path d="M2245 8729 c-4 -6 -14 -8 -22 -5 -9 4 -13 1 -10 -6 2 -7 12 -11 22
-10 16 3 17 1 6 -11 -9 -11 -9 -17 -1 -22 16 -10 23 0 25 35 3 30 -8 40 -20
19z"/>
<path d="M8460 8705 c-10 -12 -10 -18 0 -30 7 -8 16 -15 21 -15 11 0 11 31 0
48 -6 10 -10 10 -21 -3z"/>
<path d="M9121 8673 c-9 -15 -12 -15 -19 -5 -7 10 -11 7 -16 -14 -6 -21 -3
-31 10 -41 26 -19 41 -16 61 15 23 32 19 62 -7 62 -11 0 -24 -8 -29 -17z"/>
<path d="M3290 8662 c0 -5 7 -13 16 -16 10 -4 14 -1 12 6 -5 15 -28 23 -28 10z"/>
<path d="M5685 8659 c-4 -6 -5 -13 -2 -16 7 -7 27 6 27 18 0 12 -17 12 -25 -2z"/>
<path d="M8847 8654 c-14 -14 -7 -41 18 -70 14 -16 25 -32 25 -36 0 -4 14 -7
30 -5 21 1 35 10 44 27 7 14 19 24 27 22 10 -1 9 2 -3 11 -22 17 -23 27 -2 27
8 0 13 4 9 10 -3 5 -12 7 -19 4 -8 -3 -17 -1 -21 5 -4 7 -14 5 -31 -6 -20 -13
-24 -13 -22 -2 3 15 -42 25 -55 13z"/>
<path d="M10592 8628 c6 -18 28 -21 28 -4 0 9 -7 16 -16 16 -9 0 -14 -5 -12
-12z"/>
<path d="M1235 8601 c-11 -10 -46 -26 -78 -35 -54 -17 -57 -20 -55 -47 4 -51
49 -50 83 1 11 17 26 30 33 30 6 0 12 6 12 14 0 8 9 18 20 21 11 3 20 13 20
21 0 19 -12 18 -35 -5z"/>
<path d="M3250 8590 c0 -5 5 -10 11 -10 5 0 7 5 4 10 -3 6 -8 10 -11 10 -2 0
-4 -4 -4 -10z"/>
<path d="M6210 8571 c0 -11 5 -23 10 -26 6 -3 10 3 10 14 0 11 -4 23 -10 26
-5 3 -10 -3 -10 -14z"/>
<path d="M8755 8580 c3 -5 8 -10 11 -10 2 0 4 5 4 10 0 6 -5 10 -11 10 -5 0
-7 -4 -4 -10z"/>
<path d="M7195 8570 c3 -5 8 -10 11 -10 2 0 4 5 4 10 0 6 -5 10 -11 10 -5 0
-7 -4 -4 -10z"/>
<path d="M6995 8561 c-6 -11 9 -23 19 -14 9 9 7 23 -3 23 -6 0 -12 -4 -16 -9z"/>
<path d="M10580 8558 c0 -9 5 -20 10 -23 13 -8 13 5 0 25 -8 13 -10 13 -10 -2z"/>
<path d="M8973 8538 c-6 -7 -13 -27 -16 -45 -5 -26 -3 -31 11 -28 9 2 22 4 28
4 19 2 36 51 23 67 -14 17 -33 18 -46 2z"/>
<path d="M8927 8514 c5 -13 3 -15 -7 -9 -8 5 -11 3 -8 -5 2 -8 10 -16 16 -18
14 -4 16 34 2 43 -6 4 -7 -1 -3 -11z"/>
<path d="M7065 8490 c4 -6 11 -8 16 -5 14 9 11 15 -7 15 -8 0 -12 -5 -9 -10z"/>
<path d="M8980 8434 c0 -8 5 -12 10 -9 6 4 8 11 5 16 -9 14 -15 11 -15 -7z"/>
<path d="M483 8387 c0 -8 6 -14 14 -14 9 0 10 4 2 14 -6 7 -12 13 -14 13 -1 0
-2 -6 -2 -13z"/>
<path d="M290 8310 c0 -6 7 -10 15 -10 8 0 15 2 15 4 0 2 -7 6 -15 10 -8 3
-15 1 -15 -4z"/>
<path d="M320 8251 c0 -5 5 -13 10 -16 6 -3 10 -2 10 4 0 5 -4 13 -10 16 -5 3
-10 2 -10 -4z"/>
<path d="M350 8210 c0 -5 5 -10 10 -10 6 0 10 5 10 10 0 6 -4 10 -10 10 -5 0
-10 -4 -10 -10z"/>
<path d="M272 8166 c1 -10 8 -17 13 -17 15 1 12 24 -3 29 -9 3 -13 -2 -10 -12z"/>
<path d="M243 8105 c4 -8 2 -17 -4 -21 -6 -3 -8 -12 -5 -19 2 -7 -1 -18 -7
-24 -8 -8 -8 -11 0 -11 6 0 20 -3 30 -7 16 -6 17 -5 3 12 -13 17 -13 18 1 13
12 -5 16 -1 14 15 -1 12 -3 30 -4 40 0 9 -8 17 -17 17 -10 0 -14 -6 -11 -15z"/>
<path d="M340 7600 c0 -5 -8 -10 -17 -10 -15 0 -14 -2 3 -14 14 -11 21 -11 26
-3 11 17 10 37 -2 37 -5 0 -10 -4 -10 -10z"/>
<path d="M12496 7592 c-9 -14 5 -52 20 -52 17 0 18 26 2 34 -7 4 -3 4 10 2 15
-3 22 0 19 7 -4 15 -43 21 -51 9z"/>
<path d="M12500 7450 c0 -5 5 -10 10 -10 6 0 10 5 10 10 0 6 -4 10 -10 10 -5
0 -10 -4 -10 -10z"/>
<path d="M380 7110 c0 -5 5 -10 10 -10 6 0 10 5 10 10 0 6 -4 10 -10 10 -5 0
-10 -4 -10 -10z"/>
<path d="M12393 7103 c-7 -2 -13 -9 -13 -14 0 -4 7 -6 15 -2 9 3 24 -2 35 -12
28 -26 49 -14 22 13 -22 22 -35 25 -59 15z"/>
<path d="M12405 7010 c3 -5 10 -10 16 -10 5 0 9 5 9 10 0 6 -7 10 -16 10 -8 0
-12 -4 -9 -10z"/>
<path d="M12354 6975 c-8 -19 5 -38 22 -31 8 3 11 0 7 -10 -4 -10 3 -14 26
-14 24 0 31 4 31 19 0 11 -8 22 -17 24 -17 4 -17 5 0 6 33 2 7 21 -29 21 -21
0 -37 -6 -40 -15z"/>
<path d="M12330 6903 c0 -9 5 -11 13 -7 9 6 9 4 -1 -8 -10 -13 -10 -19 3 -32
23 -22 25 -21 25 18 0 25 -5 35 -20 39 -13 3 -20 0 -20 -10z"/>
<path d="M12397 6903 c-26 -25 19 -61 49 -39 15 12 16 16 5 30 -14 16 -42 21
-54 9z"/>
<path d="M12080 6870 c0 -5 7 -10 15 -10 8 0 15 5 15 10 0 6 -7 10 -15 10 -8
0 -15 -4 -15 -10z"/>
<path d="M12310 6861 c0 -5 5 -13 10 -16 6 -3 10 -2 10 4 0 5 -4 13 -10 16 -5
3 -10 2 -10 -4z"/>
<path d="M550 6791 c0 -5 5 -13 10 -16 6 -3 10 -2 10 4 0 5 -4 13 -10 16 -5 3
-10 2 -10 -4z"/>
<path d="M12184 6705 c-8 -21 3 -47 19 -43 6 3 13 14 15 25 4 24 -26 40 -34
18z"/>
<path d="M625 6651 c-6 -11 9 -23 19 -14 9 9 7 23 -3 23 -6 0 -12 -4 -16 -9z"/>
<path d="M12217 6653 c-4 -3 -7 -16 -7 -27 0 -19 1 -19 17 -3 12 11 14 20 7
27 -6 6 -13 7 -17 3z"/>
<path d="M330 6630 c-8 -5 -11 -12 -7 -16 4 -4 13 -2 19 4 15 15 7 24 -12 12z"/>
<path d="M12270 6621 c0 -5 5 -13 10 -16 6 -3 10 -2 10 4 0 5 -4 13 -10 16 -5
3 -10 2 -10 -4z"/>
<path d="M12167 6579 c-15 -31 -16 -43 -6 -83 6 -25 9 -54 6 -65 -7 -28 7 -44
32 -36 24 7 27 27 7 44 -8 6 -16 21 -19 32 -6 23 8 31 62 34 49 3 48 3 55 21
14 37 -36 59 -60 27 -8 -11 -13 -13 -14 -5 0 6 -5 12 -11 12 -5 0 -7 -5 -3
-11 4 -7 1 -10 -7 -7 -8 3 -16 20 -19 39 l-6 34 -17 -36z"/>
<path d="M324 6573 c-7 -16 -11 -41 -10 -58 1 -24 6 -30 33 -36 29 -6 31 -4
23 12 -6 10 -18 23 -28 28 -14 8 -15 12 -4 22 13 14 17 59 4 59 -4 0 -12 -12
-18 -27z"/>
<path d="M12074 6579 c-8 -14 11 -33 25 -25 6 4 11 14 11 22 0 16 -26 19 -36
3z"/>
<path d="M387 6528 c-2 -7 0 -26 6 -42 7 -21 6 -30 -3 -36 -7 -4 -10 -13 -6
-18 4 -7 -8 -14 -31 -18 -34 -6 -63 -24 -63 -38 0 -3 6 -3 14 0 11 4 13 0 9
-16 -5 -17 5 -32 41 -66 26 -24 54 -44 61 -44 7 0 20 11 29 25 9 14 22 25 29
24 29 -4 39 1 30 14 -18 22 -22 60 -10 81 18 33 20 96 2 96 -9 0 -12 6 -8 17
5 13 2 15 -15 11 -13 -4 -23 0 -26 8 -7 17 -53 18 -59 2z"/>
<path d="M12087 6500 c-8 -11 -17 -17 -20 -13 -4 3 -7 -3 -7 -14 0 -50 74 -56
86 -8 12 47 -32 73 -59 35z"/>
<path d="M261 6451 c-8 -6 -9 -11 -3 -15 6 -3 14 -1 17 5 9 14 2 20 -14 10z"/>
<path d="M12235 6450 c-7 -12 12 -50 25 -50 6 0 10 3 10 8 0 4 3 17 6 30 5 17
2 22 -14 22 -12 0 -24 -4 -27 -10z"/>
<path d="M265 6410 c3 -5 8 -10 11 -10 2 0 4 5 4 10 0 6 -5 10 -11 10 -5 0 -7
-4 -4 -10z"/>
<path d="M506 6341 c-4 -7 -5 -15 -2 -18 9 -9 19 4 14 18 -4 11 -6 11 -12 0z"/>
<path d="M12225 6339 c-4 -5 1 -11 9 -14 9 -3 22 -7 30 -9 11 -4 26 12 26 28
0 8 -61 3 -65 -5z"/>
<path d="M12170 6306 c0 -9 7 -16 15 -16 9 0 18 -7 21 -15 7 -16 34 -21 34 -6
0 5 3 16 6 25 5 12 0 16 -17 15 -13 -1 -32 2 -41 6 -13 5 -18 3 -18 -9z"/>
<path d="M530 6259 c0 -5 5 -7 10 -4 6 3 10 8 10 11 0 2 -4 4 -10 4 -5 0 -10
-5 -10 -11z"/>
<path d="M393 6218 c-14 -24 -12 -45 6 -62 13 -12 21 -14 26 -6 5 8 12 5 22
-9 21 -31 43 -27 43 7 0 36 -8 44 -32 31 -18 -10 -19 -9 -4 14 9 13 13 27 9
30 -11 12 -61 8 -70 -5z"/>
<path d="M12266 6193 c9 -36 9 -37 29 -25 16 8 16 10 -4 24 -11 8 -18 18 -14
21 3 4 1 7 -6 7 -7 0 -9 -9 -5 -27z"/>
<path d="M12296 6153 c-13 -13 -6 -72 10 -81 11 -6 13 -11 5 -16 -14 -9 -14
-43 0 -51 16 -11 59 4 59 20 0 9 6 12 15 9 8 -4 15 -1 15 4 0 16 -18 24 -25
12 -3 -5 -13 -10 -21 -10 -12 0 -14 7 -9 31 10 44 -26 104 -49 82z"/>
<path d="M12505 5860 c3 -5 8 -10 11 -10 2 0 4 5 4 10 0 6 -5 10 -11 10 -5 0
-7 -4 -4 -10z"/>
<path d="M12510 5511 c0 -5 5 -13 10 -16 6 -3 10 -2 10 4 0 5 -4 13 -10 16 -5
3 -10 2 -10 -4z"/>
<path d="M12480 5320 c0 -5 5 -10 10 -10 6 0 10 5 10 10 0 6 -4 10 -10 10 -5
0 -10 -4 -10 -10z"/>
<path d="M390 5177 c0 -21 44 -57 68 -57 33 0 39 27 12 50 -26 23 -80 27 -80
7z"/>
<path d="M12480 4763 c0 -5 7 -17 15 -27 14 -18 15 -18 15 -2 0 9 4 14 10 11
6 -3 7 1 4 9 -6 16 -44 23 -44 9z"/>
<path d="M12403 4713 c-31 -12 -6 -63 30 -63 15 0 18 5 13 23 -3 12 -6 28 -6
35 0 12 -15 15 -37 5z"/>
<path d="M12440 4606 c0 -8 5 -18 10 -21 6 -3 10 3 10 14 0 12 -4 21 -10 21
-5 0 -10 -6 -10 -14z"/>
<path d="M12433 4527 c-27 -12 -30 -32 -7 -41 20 -8 75 15 71 28 -5 16 -41 24
-64 13z"/>
<path d="M12340 4259 c0 -5 5 -7 10 -4 6 3 10 8 10 11 0 2 -4 4 -10 4 -5 0
-10 -5 -10 -11z"/>
<path d="M656 4155 c-3 -8 -1 -17 3 -20 5 -3 11 2 15 10 3 8 1 17 -3 20 -5 3
-11 -2 -15 -10z"/>
<path d="M426 4003 c-9 -10 4 -23 23 -23 23 0 23 26 0 27 -9 1 -20 -1 -23 -4z"/>
<path d="M533 3965 c-48 -48 -35 -61 49 -49 52 7 63 13 66 29 2 14 -8 26 -29
38 -42 23 -46 22 -86 -18z"/>
<path d="M12428 3913 c-28 -7 -21 -20 16 -38 40 -19 64 -12 45 11 -17 21 -41
31 -61 27z"/>
<path d="M610 3886 c0 -19 -11 -21 -27 -5 -16 16 -65 -15 -57 -36 4 -8 1 -15
-5 -15 -19 0 -12 -29 9 -40 16 -8 20 -8 20 4 0 20 27 28 34 10 4 -10 16 -14
33 -12 26 3 28 6 28 53 0 39 -4 50 -17 53 -11 2 -18 -3 -18 -12z"/>
<path d="M12332 3858 c-22 -22 -13 -45 28 -73 31 -22 43 -26 53 -16 9 9 5 17
-16 37 -15 13 -27 34 -27 44 0 22 -20 26 -38 8z"/>
<path d="M12390 3846 c0 -31 12 -38 45 -30 32 8 32 28 0 42 -37 17 -45 15 -45
-12z"/>
<path d="M12495 3838 c-4 -10 -5 -25 -1 -33 3 -8 1 -15 -5 -15 -5 0 -9 -6 -8
-12 4 -35 -2 -58 -16 -58 -9 0 -21 -11 -27 -25 -10 -22 -9 -29 8 -46 20 -19
60 -18 48 2 -3 5 -1 9 5 9 6 0 8 7 5 15 -4 8 -1 15 5 15 15 0 14 33 -1 49 -11
10 -10 15 4 25 10 7 15 16 12 19 -4 3 -10 21 -14 39 -6 26 -9 29 -15 16z"/>
<path d="M567 3722 c-4 -6 -14 -9 -21 -6 -19 7 -29 -11 -13 -25 17 -14 52 9
45 29 -3 10 -6 11 -11 2z"/>
<path d="M366 3651 c2 -37 3 -38 19 -17 19 26 19 33 -3 38 -14 4 -18 0 -16
-21z"/>
<path d="M637 3619 c-21 -12 -23 -49 -2 -49 8 0 17 11 21 25 8 32 4 36 -19 24z"/>
<path d="M12575 2822 c-10 -10 -5 -51 7 -58 10 -7 58 41 58 58 0 8 -57 8 -65
0z"/>
<path d="M12528 2293 c-19 -5 -22 -20 -12 -47 10 -25 74 -18 74 9 0 11 -32 46
-41 44 -2 -1 -12 -3 -21 -6z"/>
<path d="M12595 2280 c3 -5 8 -10 11 -10 2 0 4 5 4 10 0 6 -5 10 -11 10 -5 0
-7 -4 -4 -10z"/>
<path d="M12535 2209 c-4 -6 -4 -13 -1 -16 8 -8 36 5 36 17 0 13 -27 13 -35
-1z"/>
<path d="M12630 2060 c0 -5 5 -10 11 -10 5 0 7 5 4 10 -3 6 -8 10 -11 10 -2 0
-4 -4 -4 -10z"/>
<path d="M382 1993 c-11 -22 -5 -44 16 -60 9 -7 11 -13 5 -13 -6 0 -16 7 -23
15 -18 22 -40 18 -40 -6 0 -14 11 -25 36 -35 44 -19 68 -12 59 16 -4 11 -2 20
4 20 17 0 25 48 11 65 -17 20 -57 19 -68 -2z"/>
<path d="M12586 1921 c-4 -7 -5 -15 -2 -18 9 -9 19 4 14 18 -4 11 -6 11 -12 0z"/>
<path d="M12546 1883 c4 -16 11 -32 17 -38 6 -7 8 -2 3 15 -3 14 -6 31 -6 38
0 6 -5 12 -10 12 -6 0 -8 -11 -4 -27z"/>
<path d="M299 1823 c-4 -38 -4 -38 34 -41 22 -1 44 -4 50 -5 6 -1 13 8 15 20
2 17 -5 28 -30 43 -50 30 -65 26 -69 -17z"/>
<path d="M12525 1810 c3 -5 8 -10 11 -10 2 0 4 5 4 10 0 6 -5 10 -11 10 -5 0
-7 -4 -4 -10z"/>
<path d="M12596 1794 c-8 -31 -5 -37 18 -28 20 8 21 28 2 43 -11 9 -15 6 -20
-15z"/>
<path d="M12607 1735 c3 -9 0 -43 -7 -76 -12 -57 -12 -62 7 -81 40 -39 52 1
14 46 -15 18 -15 18 6 12 21 -7 22 -4 19 42 -2 27 -6 54 -10 61 -11 17 -36 14
-29 -4z"/>
<path d="M599 938 c-1 -7 -1 -19 0 -25 1 -7 -3 -13 -9 -13 -5 0 -10 7 -10 15
0 8 -9 15 -20 15 -51 0 3 -54 58 -58 50 -3 62 13 37 52 -18 27 -54 36 -56 14z"/>
<path d="M10371 937 c-17 -17 -13 -52 9 -72 17 -15 20 -16 20 -3 0 9 6 18 13
21 7 2 13 16 15 30 1 19 -4 26 -23 29 -13 3 -29 0 -34 -5z"/>
<path d="M8405 900 c3 -5 13 -10 21 -10 8 0 14 5 14 10 0 6 -9 10 -21 10 -11
0 -17 -4 -14 -10z"/>
<path d="M519 869 c-14 -28 3 -49 28 -33 25 16 27 31 4 43 -17 9 -22 8 -32
-10z"/>
<path d="M7565 850 c-3 -5 -1 -10 4 -10 6 0 11 5 11 10 0 6 -2 10 -4 10 -3 0
-8 -4 -11 -10z"/>
<path d="M10486 845 c-9 -9 -17 -11 -21 -5 -9 14 -45 -7 -45 -26 0 -9 14 -28
30 -42 23 -20 41 -27 73 -27 35 0 41 -3 39 -18 -7 -43 49 -73 91 -49 30 18 34
34 13 52 -8 6 -16 21 -18 33 -2 12 -13 26 -25 32 -13 5 -23 18 -23 27 0 13 -8
18 -25 18 -14 0 -25 5 -25 10 0 16 -47 12 -64 -5z"/>
<path d="M460 825 c-13 -14 -20 -28 -15 -32 4 -5 10 -2 12 5 4 10 8 10 19 1
12 -10 18 -9 30 3 13 13 12 16 -4 31 -17 16 -20 16 -42 -8z"/>
<path d="M7427 823 c-15 -14 -6 -32 23 -47 26 -13 30 -13 30 0 0 9 5 12 10 9
6 -3 10 2 10 13 0 10 -6 19 -12 19 -7 0 -22 3 -34 7 -11 3 -23 3 -27 -1z"/>
<path d="M7585 800 c3 -5 8 -10 11 -10 2 0 4 5 4 10 0 6 -5 10 -11 10 -5 0 -7
-4 -4 -10z"/>
<path d="M8742 799 c2 -7 10 -15 17 -17 8 -3 12 1 9 9 -2 7 -10 15 -17 17 -8
3 -12 -1 -9 -9z"/>
<path d="M494 761 c4 -5 0 -11 -6 -14 -7 -2 -9 -8 -5 -13 4 -5 12 -2 17 6 13
20 12 30 -1 30 -5 0 -8 -4 -5 -9z"/>
<path d="M10780 730 c0 -5 7 -10 16 -10 8 0 12 5 9 10 -3 6 -10 10 -16 10 -5
0 -9 -4 -9 -10z"/>
<path d="M7666 696 c3 -9 11 -16 16 -16 13 0 5 23 -10 28 -7 2 -10 -2 -6 -12z"/>
<path d="M10305 690 c3 -5 11 -10 16 -10 6 0 7 5 4 10 -3 6 -11 10 -16 10 -6
0 -7 -4 -4 -10z"/>
<path d="M410 679 c0 -5 5 -7 10 -4 6 3 10 8 10 11 0 2 -4 4 -10 4 -5 0 -10
-5 -10 -11z"/>
<path d="M10260 676 c0 -8 5 -18 10 -21 6 -3 10 -15 10 -26 0 -13 10 -24 30
-30 17 -6 30 -15 30 -20 0 -5 9 -1 19 8 11 9 18 20 15 25 -3 4 2 8 10 8 10 0
13 6 9 15 -6 18 -39 15 -35 -3 3 -18 -2 -15 -44 23 -41 38 -54 43 -54 21z"/>
<path d="M1127 663 c-30 -35 -21 -124 16 -156 20 -17 20 -17 2 -9 -51 24 -102
-8 -77 -49 11 -18 11 -23 -3 -33 -15 -11 -13 -15 17 -38 51 -38 77 -50 98 -43
22 7 26 35 8 53 -9 9 -6 12 15 12 30 0 45 23 29 43 -6 7 -9 23 -5 35 5 20 7
21 17 6 11 -14 13 -15 25 0 12 14 11 19 -4 36 -19 21 -55 27 -55 9 0 -5 -4 -8
-9 -5 -5 4 -12 0 -14 -6 -4 -10 -8 -10 -16 2 -7 10 -6 18 1 27 6 8 12 21 13
31 1 9 5 25 10 35 11 25 -10 67 -33 67 -11 0 -26 -8 -35 -17z"/>
<path d="M7300 645 c0 -30 25 -34 33 -6 5 22 0 31 -20 31 -7 0 -13 -11 -13
-25z"/>
<path d="M8854 655 c-9 -23 14 -45 26 -25 5 8 8 19 7 24 -6 17 -27 18 -33 1z"/>
<path d="M10469 668 c-8 -27 -7 -53 2 -65 9 -11 9 -12 -3 -8 -11 4 -19 -3 -27
-26 -13 -39 -14 -42 -2 -35 5 3 12 -5 15 -19 9 -34 45 -28 67 11 23 38 23 54
2 54 -10 0 -3 8 17 17 19 9 36 17 38 18 1 1 0 10 -4 19 -5 13 -14 15 -34 11
-18 -4 -31 -1 -40 10 -11 13 -28 20 -31 13z"/>
<path d="M10835 651 c-9 -16 3 -31 26 -31 14 0 19 6 17 17 -4 20 -33 29 -43
14z"/>
<path d="M1546 635 c4 -8 8 -15 10 -15 2 0 4 7 4 15 0 8 -4 15 -10 15 -5 0 -7
-7 -4 -15z"/>
<path d="M8731 612 c-14 -34 -9 -54 10 -35 6 6 9 23 7 39 l-3 29 -14 -33z"/>
<path d="M394 615 c-4 -9 1 -24 11 -35 22 -24 35 -26 35 -5 0 8 -4 15 -10 15
-5 0 -10 6 -10 14 0 22 -19 30 -26 11z"/>
<path d="M7395 620 c3 -5 11 -10 16 -10 6 0 7 5 4 10 -3 6 -11 10 -16 10 -6 0
-7 -4 -4 -10z"/>
<path d="M6750 610 c0 -10 32 -30 49 -30 6 0 11 5 11 10 0 6 -7 10 -15 10 -8
0 -15 5 -15 10 0 6 -7 10 -15 10 -8 0 -15 -4 -15 -10z"/>
<path d="M9230 611 c0 -12 29 -35 36 -28 11 10 -5 37 -21 37 -8 0 -15 -4 -15
-9z"/>
<path d="M7840 590 c0 -5 7 -10 15 -10 8 0 15 5 15 10 0 6 -7 10 -15 10 -8 0
-15 -4 -15 -10z"/>
<path d="M1570 578 c0 -18 18 -34 28 -24 3 4 -2 14 -11 23 -16 16 -17 16 -17
1z"/>
<path d="M8791 572 c-5 -10 -6 -24 -1 -32 7 -11 11 -10 25 4 17 16 19 16 50
-14 22 -21 35 -28 40 -20 8 13 -22 50 -40 50 -7 0 -18 7 -25 15 -17 20 -37 19
-49 -3z"/>
<path d="M10891 581 c-8 -5 -9 -11 -3 -15 5 -3 12 1 16 9 6 17 6 18 -13 6z"/>
<path d="M460 572 c0 -5 9 -17 20 -27 16 -15 23 -16 33 -6 9 10 8 15 -7 27
-22 16 -46 19 -46 6z"/>
<path d="M1494 555 c-25 -39 -4 -72 47 -77 29 -3 38 0 35 9 -3 8 2 13 13 13
10 0 24 7 31 15 11 13 8 15 -14 15 -16 0 -37 10 -50 25 -29 32 -41 31 -62 0z"/>
<path d="M6960 560 c-12 -8 -11 -10 8 -10 12 0 22 5 22 10 0 13 -11 13 -30 0z"/>
<path d="M9646 561 c-4 -7 -5 -15 -2 -18 9 -9 19 4 14 18 -4 11 -6 11 -12 0z"/>
<path d="M382 549 c2 -7 10 -15 17 -17 8 -3 12 1 9 9 -2 7 -10 15 -17 17 -8 3
-12 -1 -9 -9z"/>
<path d="M10543 545 c-3 -9 -3 -18 0 -21 9 -9 27 6 27 22 0 19 -19 18 -27 -1z"/>
<path d="M2263 543 c-15 -5 -18 -43 -4 -43 5 0 14 7 21 15 14 17 3 35 -17 28z"/>
<path d="M8820 531 c0 -12 29 -35 36 -28 11 10 -5 37 -21 37 -8 0 -15 -4 -15
-9z"/>
<path d="M10888 508 c3 -14 -2 -18 -19 -18 -13 0 -31 -5 -39 -10 -13 -9 -12
-13 9 -30 42 -36 81 -20 81 33 0 18 4 26 11 21 7 -4 10 -1 7 6 -2 7 -16 14
-30 14 -19 1 -24 -2 -20 -16z"/>
<path d="M6872 509 c2 -7 10 -15 17 -17 8 -3 12 1 9 9 -2 7 -10 15 -17 17 -8
3 -12 -1 -9 -9z"/>
<path d="M10840 510 c0 -5 7 -10 16 -10 8 0 12 5 9 10 -3 6 -10 10 -16 10 -5
0 -9 -4 -9 -10z"/>
<path d="M12280 506 c0 -8 5 -18 10 -21 6 -3 10 1 10 9 0 8 -4 18 -10 21 -5 3
-10 -1 -10 -9z"/>
<path d="M9892 501 c4 -13 18 -16 19 -4 0 4 -5 9 -11 12 -7 2 -11 -2 -8 -8z"/>
<path d="M1714 489 c-8 -14 21 -43 35 -35 13 8 4 33 -14 40 -8 3 -17 0 -21 -5z"/>
<path d="M6060 471 c0 -21 26 -36 36 -20 9 15 -3 39 -21 39 -8 0 -15 -9 -15
-19z"/>
<path d="M6910 471 c0 -22 16 -36 24 -22 8 12 -3 41 -15 41 -5 0 -9 -9 -9 -19z"/>
<path d="M10511 474 c0 -11 3 -14 6 -6 3 7 2 16 -1 19 -3 4 -6 -2 -5 -13z"/>
<path d="M6990 470 c0 -6 7 -13 15 -17 24 -9 27 1 5 15 -13 8 -20 8 -20 2z"/>
<path d="M8982 469 c2 -7 10 -15 17 -17 8 -3 12 1 9 9 -2 7 -10 15 -17 17 -8
3 -12 -1 -9 -9z"/>
<path d="M11585 470 c-9 -15 3 -30 20 -24 7 3 11 12 8 20 -6 16 -19 18 -28 4z"/>
<path d="M1525 460 c3 -5 18 -10 33 -10 21 0 24 2 12 10 -20 13 -53 13 -45 0z"/>
<path d="M8956 448 c5 -8 2 -9 -9 -5 -12 5 -17 1 -17 -13 0 -14 6 -18 28 -17
18 1 26 -2 24 -12 -4 -21 18 -43 33 -31 6 5 15 7 18 3 13 -12 37 20 37 48 0
32 -16 37 -52 18 -17 -9 -23 -8 -30 5 -5 9 -16 16 -24 16 -9 0 -12 -5 -8 -12z"/>
<path d="M1780 440 c0 -5 5 -10 10 -10 6 0 10 5 10 10 0 6 -4 10 -10 10 -5 0
-10 -4 -10 -10z"/>
<path d="M2080 440 c20 -13 33 -13 25 0 -3 6 -14 10 -23 10 -15 0 -15 -2 -2
-10z"/>
<path d="M7100 430 c0 -11 6 -19 13 -17 19 3 27 21 14 29 -20 13 -27 9 -27
-12z"/>
<path d="M1020 430 c0 -5 5 -10 10 -10 6 0 10 5 10 10 0 6 -4 10 -10 10 -5 0
-10 -4 -10 -10z"/>
<path d="M2732 407 c-13 -16 3 -57 22 -57 17 0 25 18 18 42 -5 22 -28 30 -40
15z"/>
<path d="M2975 410 c3 -5 8 -10 11 -10 2 0 4 5 4 10 0 6 -5 10 -11 10 -5 0 -7
-4 -4 -10z"/>
<path d="M648 398 c7 -7 12 -20 12 -30 0 -17 35 -38 61 -38 16 0 10 30 -8 37
-9 4 -25 15 -35 25 -10 10 -23 18 -30 18 -9 0 -9 -3 0 -12z"/>
<path d="M2693 399 c-21 -21 -15 -46 16 -68 16 -12 32 -21 35 -21 12 0 6 20
-11 40 -10 11 -20 30 -23 41 -4 16 -7 18 -17 8z"/>
<path d="M10810 396 c0 -9 -8 -12 -25 -8 -27 5 -33 -9 -11 -27 10 -9 16 -9 21
-1 4 6 13 9 21 6 10 -4 14 2 14 19 0 14 -4 25 -10 25 -5 0 -10 -6 -10 -14z"/>
<path d="M750 386 c0 -8 4 -17 9 -20 11 -7 33 18 24 27 -12 12 -33 7 -33 -7z"/>
<path d="M3359 382 c-8 -13 -21 -16 -50 -14 -22 2 -42 8 -45 13 -10 17 -33 9
-50 -16 -16 -24 -15 -27 0 -44 9 -10 30 -21 47 -25 16 -3 29 -12 29 -20 0 -16
18 -31 26 -23 3 3 1 14 -4 24 -8 15 -6 22 10 32 18 11 20 11 15 -2 -8 -22 12
-38 35 -26 11 6 26 9 34 7 11 -2 9 -9 -10 -29 -18 -20 -22 -29 -13 -38 18 -18
40 -13 34 8 -3 11 1 22 8 24 7 3 10 17 7 36 -2 17 -8 28 -13 25 -5 -3 -9 0 -9
5 0 6 5 11 10 11 18 0 11 49 -9 60 -28 14 -39 13 -52 -8z"/>
<path d="M10715 390 c3 -5 8 -10 11 -10 2 0 4 5 4 10 0 6 -5 10 -11 10 -5 0
-7 -4 -4 -10z"/>
<path d="M2084 358 c-9 -15 27 -41 40 -28 6 6 5 15 -4 25 -15 18 -26 19 -36 3z"/>
<path d="M991 346 c-8 -10 -8 -16 3 -25 10 -9 16 -8 26 3 12 15 6 36 -9 36 -5
0 -14 -6 -20 -14z"/>
<path d="M1326 281 c-3 -4 3 -16 13 -25 24 -21 38 -4 15 18 -18 18 -21 19 -28
7z"/>
<path d="M3560 255 c0 -9 5 -15 11 -13 6 2 11 8 11 13 0 5 -5 11 -11 13 -6 2
-11 -4 -11 -13z"/>
<path d="M2703 237 c4 -10 -2 -13 -20 -9 -25 5 -25 5 -8 -22 18 -28 41 -36 31
-11 -4 10 1 14 17 12 30 -3 29 23 -2 34 -18 7 -22 6 -18 -4z"/>
<path d="M3346 205 c4 -8 12 -15 20 -15 8 0 11 6 8 15 -4 8 -12 15 -20 15 -8
0 -11 -6 -8 -15z"/>
<path d="M4695 200 c3 -5 8 -10 11 -10 2 0 4 5 4 10 0 6 -5 10 -11 10 -5 0 -7
-4 -4 -10z"/>
<path d="M5150 190 c-12 -7 -12 -13 -4 -27 16 -26 39 -22 39 6 0 27 -13 35
-35 21z"/>
<path d="M3292 153 c-8 -14 -9 -24 -2 -28 12 -7 24 18 18 37 -3 8 -9 5 -16 -9z"/>
<path d="M3995 140 c-3 -5 -2 -10 4 -10 5 0 13 5 16 10 3 6 2 10 -4 10 -5 0
-13 -4 -16 -10z"/>
<path d="M5285 140 c3 -5 8 -10 11 -10 2 0 4 5 4 10 0 6 -5 10 -11 10 -5 0 -7
-4 -4 -10z"/>
<path d="M3951 126 c-9 -11 -10 -20 -1 -35 14 -27 17 -26 22 3 7 34 -5 51 -21
32z"/>
</g>
</svg>
