<?xml version="1.0" standalone="no"?>
<!DOCTYPE svg PUBLIC "-//W3C//DTD SVG 20010904//EN"
 "http://www.w3.org/TR/2001/REC-SVG-20010904/DTD/svg10.dtd">
<svg version="1.0" xmlns="http://www.w3.org/2000/svg"
 width="994.000000pt" height="1280.000000pt" viewBox="0 0 994.000000 1280.000000"
 preserveAspectRatio="none">
<metadata>
Created by potrace 1.15, written by Peter Selinger 2001-2017
</metadata>
<g transform="translate(0.000000,1280.000000) scale(0.100000,-0.100000)"
fill="#000000" stroke="none">
<path d="M9270 12797 c-14 -15 -229 -48 -425 -66 -794 -72 -1629 -128 -2265
-151 -423 -15 -636 -29 -705 -46 -77 -18 -145 -20 -381 -9 l-192 8 -37 -51
c-27 -39 -43 -52 -62 -52 -23 0 -24 3 -21 48 3 42 1 47 -17 44 -208 -26 -524
-43 -1175 -62 -408 -12 -665 -26 -888 -46 -149 -13 -191 -20 -307 -45 -95 -20
-583 -39 -1276 -49 -409 -6 -816 -15 -904 -20 -89 -6 -244 -10 -345 -9 -198 2
-228 -4 -256 -46 -18 -27 -18 6 6 -495 5 -107 14 -301 20 -430 6 -129 15 -332
20 -450 5 -118 14 -336 20 -485 43 -1113 64 -1621 81 -1950 16 -325 39 -711
49 -850 32 -426 42 -623 37 -759 -6 -160 0 -191 37 -205 l24 -10 0 -983 c0
-541 5 -1233 11 -1538 6 -305 15 -877 21 -1270 18 -1189 31 -1537 62 -1655 6
-25 25 -53 49 -76 l38 -35 -43 -40 c-67 -61 -81 -130 -81 -409 0 -275 17 -346
100 -430 69 -68 146 -96 340 -120 148 -18 162 -21 228 -42 40 -12 60 -13 105
-4 191 37 776 70 1592 91 1332 33 1605 48 2015 105 199 28 447 44 802 50 200
3 427 10 505 15 358 24 827 45 1528 70 356 13 877 38 1015 49 108 9 140 4 194
-32 60 -40 119 -67 145 -67 13 0 62 13 108 29 118 41 156 48 303 61 197 18
322 38 363 59 72 37 122 105 183 246 36 85 43 111 43 170 1 66 -2 75 -42 139
-58 93 -63 121 -26 151 l28 22 -12 64 c-14 81 -37 390 -62 834 -24 440 -30
728 -24 1045 6 317 0 540 -26 931 -22 335 -41 995 -70 2399 -33 1603 -46 2081
-90 3345 -6 154 -15 417 -20 585 -6 175 -8 493 -4 745 4 268 2 606 -5 865 -19
694 -25 723 -161 784 -56 25 -140 43 -150 33z m-8828 -6184 c-3 -16 -7 -22
-10 -15 -4 13 4 42 11 42 2 0 2 -12 -1 -27z m9175 -5025 c-3 -8 -6 -5 -6 6 -1
11 2 17 5 13 3 -3 4 -12 1 -19z"/>
</g>
</svg>
