<?xml version="1.0" standalone="no"?>
<!DOCTYPE svg PUBLIC "-//W3C//DTD SVG 20010904//EN"
 "http://www.w3.org/TR/2001/REC-SVG-20010904/DTD/svg10.dtd">
<svg version="1.0" xmlns="http://www.w3.org/2000/svg"
 width="1126.000000pt" height="1280.000000pt" viewBox="0 0 1126.000000 1280.000000"
 preserveAspectRatio="xMidYMid meet">
<metadata>
Created by potrace 1.15, written by Peter Selinger 2001-2017
</metadata>
<g transform="translate(0.000000,1280.000000) scale(0.100000,-0.100000)"
fill="rgb(93, 49, 45)" stroke="none">
<path d="M3336 12765 c-54 -19 -105 -40 -112 -46 -27 -23 -89 -49 -115 -49
-43 0 -296 -101 -404 -160 -60 -34 -102 -64 -108 -78 -7 -14 -32 -33 -63 -47
-64 -28 -186 -142 -225 -210 -21 -36 -27 -58 -23 -80 4 -25 0 -34 -25 -53 -39
-28 -61 -71 -77 -147 -31 -143 -2 -448 46 -487 12 -10 31 -18 41 -18 10 0 27
-9 37 -20 25 -27 73 -40 149 -40 75 0 87 -10 111 -91 15 -52 20 -59 43 -59 14
0 34 -7 45 -15 10 -8 29 -15 41 -15 39 0 55 -41 68 -176 7 -69 17 -130 23
-136 10 -10 67 -7 109 7 18 6 25 1 42 -33 24 -46 55 -72 88 -72 16 0 27 -10
37 -35 12 -29 22 -36 61 -46 39 -10 49 -18 67 -53 11 -22 28 -50 38 -61 15
-17 18 -47 23 -180 3 -88 13 -200 21 -250 21 -121 20 -144 -8 -217 -26 -70
-46 -146 -46 -181 0 -12 25 -54 55 -92 33 -41 55 -78 55 -93 0 -14 -11 -91
-25 -171 -30 -178 -60 -355 -80 -479 -9 -53 -30 -130 -49 -175 -69 -165 -286
-589 -392 -767 -28 -47 -72 -121 -99 -166 -26 -45 -86 -139 -134 -210 -73
-109 -90 -129 -112 -129 -25 0 -55 -32 -211 -227 -37 -45 -100 -78 -150 -78
-37 0 -178 -158 -178 -199 0 -12 -7 -35 -15 -51 -13 -25 -13 -34 0 -77 8 -26
26 -64 40 -83 27 -36 32 -65 14 -76 -18 -11 -5 -97 24 -156 14 -29 33 -75 43
-103 20 -60 70 -152 87 -158 21 -8 81 26 94 53 9 18 9 38 2 69 -5 24 -8 46 -5
48 2 2 19 -5 37 -16 38 -24 81 -27 97 -8 6 6 14 25 17 40 4 16 18 35 31 43 13
9 26 24 29 33 3 10 21 26 39 36 44 24 70 8 61 -36 -5 -23 -1 -34 20 -54 56
-51 156 -41 190 19 10 17 31 42 46 56 21 20 28 36 32 77 3 46 9 57 51 97 26
25 55 46 66 46 10 0 33 12 50 27 38 31 131 44 170 23 12 -6 52 -16 88 -21 66
-9 96 -24 86 -40 -3 -5 6 -9 20 -9 37 0 37 -21 1 -56 -25 -23 -35 -42 -40 -80
-4 -27 -23 -86 -41 -132 -19 -45 -34 -90 -34 -101 0 -10 -9 -43 -19 -74 -11
-31 -23 -78 -27 -104 -4 -26 -18 -73 -31 -103 -36 -80 -50 -128 -58 -190 -5
-35 -16 -65 -31 -83 -13 -16 -24 -34 -24 -41 0 -7 -15 -27 -34 -45 -26 -25
-39 -32 -53 -26 -10 4 -35 8 -56 9 -32 1 -42 -4 -63 -31 -14 -19 -30 -30 -38
-27 -9 4 -18 -6 -25 -28 -30 -95 -44 -171 -45 -238 l-1 -74 -45 -30 c-25 -17
-53 -41 -63 -53 -10 -13 -42 -35 -70 -49 -35 -17 -57 -35 -67 -57 -19 -40 -41
-44 -128 -21 -105 28 -466 26 -622 -3 -303 -58 -560 -166 -801 -339 -105 -75
-310 -272 -398 -383 -280 -351 -445 -791 -492 -1311 -14 -148 -6 -405 16 -539
24 -145 101 -461 140 -579 65 -192 227 -508 331 -645 24 -31 44 -61 44 -66 0
-38 274 -340 397 -439 291 -232 693 -422 1032 -488 540 -106 1010 -54 1446
159 394 193 658 460 855 862 158 323 222 581 250 1006 10 140 9 182 -4 271
-19 129 -20 139 -2 163 12 17 17 18 54 5 34 -10 44 -11 57 0 8 7 24 10 36 7
14 -4 30 4 51 24 33 31 43 35 53 19 3 -5 29 -10 57 -10 43 0 54 4 79 31 16 17
34 29 41 27 34 -8 208 -129 258 -178 31 -31 71 -62 90 -70 46 -18 160 -90 160
-100 0 -11 115 -84 190 -119 36 -17 96 -56 133 -86 38 -30 77 -55 87 -55 11 0
34 -13 52 -29 47 -40 90 -61 145 -67 84 -9 93 -13 109 -48 15 -31 15 -35 -5
-74 -27 -53 -27 -101 2 -143 20 -31 28 -34 76 -37 29 -2 66 1 81 6 19 7 46 6
91 -5 92 -21 190 -31 218 -21 14 5 28 4 36 -2 10 -8 18 -4 33 18 22 29 132 92
163 92 17 0 25 -18 20 -44 -1 -5 -3 -31 -3 -57 -1 -38 7 -60 44 -125 26 -44
63 -119 83 -169 92 -224 235 -482 369 -663 93 -127 306 -342 428 -433 646
-481 1504 -572 2248 -240 119 54 279 148 390 229 107 79 323 300 403 412 213
300 364 763 407 1250 66 748 -183 1565 -657 2155 -115 144 -203 236 -328 343
-371 318 -819 505 -1306 543 -317 25 -705 -35 -839 -131 -65 -46 -118 -15
-140 83 -35 149 -89 284 -224 557 -161 324 -179 378 -179 529 1 123 10 146 69
172 26 10 67 40 91 65 43 43 45 47 39 89 -5 33 -1 61 18 118 15 42 26 96 26
128 1 30 10 79 21 109 12 34 23 100 28 175 11 143 47 259 115 369 24 39 51 93
60 119 9 26 27 69 40 96 14 27 41 88 61 137 21 49 50 115 66 147 17 34 29 73
29 97 0 21 7 67 15 103 10 42 12 74 6 94 -11 39 -17 429 -7 466 7 22 3 36 -19
66 -21 31 -28 55 -32 118 -3 43 -12 87 -19 98 -8 11 -14 33 -14 50 0 27 -12
76 -66 265 -9 30 -36 96 -60 146 -25 50 -49 116 -53 145 -7 44 -15 59 -42 79
-18 14 -44 37 -58 52 -14 15 -44 47 -67 70 -31 33 -47 63 -67 128 l-27 85 -56
29 c-36 19 -78 54 -117 99 -34 39 -152 162 -262 274 -164 168 -212 210 -268
240 -47 25 -78 50 -103 84 -49 67 -239 239 -321 291 -37 23 -110 71 -161 106
-189 128 -445 267 -631 342 -53 21 -138 58 -190 80 -99 44 -211 76 -373 109
-148 31 -242 40 -508 51 -237 9 -366 24 -480 55 -91 25 -157 20 -230 -17 -71
-35 -88 -32 -105 20 -6 17 -25 51 -44 77 l-33 46 31 35 c28 31 31 42 31 98 0
41 9 87 25 134 14 39 25 82 25 95 0 15 -22 46 -62 88 -43 44 -83 102 -127 182
-50 92 -68 117 -85 117 -15 0 -28 14 -45 45 -31 58 -95 131 -132 150 -40 21
-62 19 -173 -20z m842 -3196 c108 -44 330 -144 527 -239 104 -50 229 -102 257
-107 15 -3 33 -12 39 -20 15 -18 14 -105 -2 -134 -16 -31 -129 -376 -129 -396
0 -60 -153 -418 -183 -428 -7 -2 -24 -6 -38 -9 -30 -7 -99 -74 -126 -123 -16
-29 -21 -32 -49 -27 -29 5 -32 3 -48 -40 -16 -41 -16 -47 -1 -76 9 -17 13 -35
10 -39 -3 -5 -30 -23 -61 -40 -33 -19 -63 -46 -76 -67 -25 -42 -45 -54 -93
-54 -51 0 -106 -34 -138 -83 -24 -36 -27 -51 -27 -128 l0 -87 -40 -32 c-22
-17 -40 -40 -40 -49 0 -15 -38 -31 -192 -81 -106 -34 -216 -73 -245 -86 -64
-28 -123 -71 -123 -90 0 -20 -10 -18 -71 16 -60 33 -87 37 -95 16 -8 -21 -29
-26 -62 -16 -31 8 -52 -2 -52 -27 0 -6 -10 -28 -22 -46 -13 -19 -27 -42 -33
-51 -9 -15 -16 -16 -62 -6 -66 14 -139 2 -137 -23 2 -21 -29 -23 -45 -3 -17
20 -58 28 -81 16 -15 -8 -18 -17 -13 -40 8 -43 -15 -38 -33 7 -16 38 -15 88 4
172 8 35 26 59 93 128 46 46 107 101 134 121 89 65 328 282 413 376 46 50 121
147 167 216 46 69 97 142 114 163 16 22 40 64 51 95 12 32 41 100 65 152 48
104 64 158 129 455 25 110 69 304 100 430 30 127 58 254 62 283 3 28 11 52 17
52 5 0 66 -23 135 -51z m2286 -1851 c3 -13 6 -39 6 -58 0 -19 5 -51 11 -70 18
-58 26 -507 11 -640 l-7 -65 -125 -8 c-143 -9 -245 -27 -312 -56 -48 -20 -138
-95 -138 -114 0 -15 75 -2 212 38 173 51 195 53 238 21 19 -14 78 -55 131 -90
53 -36 104 -78 114 -92 19 -29 53 -220 62 -344 4 -65 0 -95 -36 -232 -22 -86
-50 -203 -61 -260 -34 -167 -37 -174 -75 -198 -47 -29 -56 -48 -45 -96 27
-115 3 -173 -80 -198 -26 -8 -101 -37 -166 -64 -204 -85 -334 -126 -375 -119
-19 4 -97 48 -175 100 -76 51 -165 106 -196 122 l-57 29 -6 86 c-9 114 -49
397 -86 599 -32 174 -82 359 -130 481 -16 41 -32 95 -35 120 -5 43 -3 49 55
128 61 83 71 89 113 73 33 -12 141 12 186 42 21 13 55 27 76 31 86 16 238 111
376 233 246 218 303 286 364 434 35 84 58 124 86 152 45 43 55 45 64 15z
m-2048 -431 c-3 -18 -24 -63 -46 -101 -65 -112 -75 -153 -62 -255 13 -95 52
-256 76 -312 14 -34 22 -83 45 -294 6 -49 18 -129 26 -178 9 -48 15 -106 13
-129 l-3 -42 -234 158 c-242 163 -395 245 -531 287 -91 28 -110 42 -110 83 0
18 -9 49 -19 70 -25 47 -20 58 31 82 38 18 43 24 60 84 10 36 20 90 21 119 3
53 4 55 35 63 21 6 32 15 32 27 0 19 21 41 58 60 19 10 23 9 29 -5 3 -9 1 -25
-6 -35 -10 -17 -8 -19 23 -19 19 0 47 6 62 12 22 10 28 10 32 0 11 -33 57 -72
102 -87 44 -15 52 -15 79 -1 34 18 55 52 141 226 34 69 75 140 91 158 16 18
29 38 29 45 0 7 6 19 12 25 17 17 22 1 14 -41z m-728 -173 c27 -18 22 -59 -12
-88 -11 -10 -20 -23 -18 -27 1 -5 -2 -9 -8 -9 -5 0 -10 4 -10 10 0 5 -18 19
-40 30 -22 11 -40 27 -40 35 0 16 67 65 90 65 9 0 26 -7 38 -16z m255 -1080
c82 -42 157 -91 272 -180 44 -34 125 -91 180 -127 55 -35 110 -75 122 -88 37
-41 73 -190 74 -304 1 -119 4 -135 29 -135 10 0 22 -4 25 -10 10 -17 25 -124
19 -142 -8 -27 -22 -22 -26 10 -2 21 -9 28 -30 30 -24 3 -26 5 -15 23 10 17 8
23 -18 44 -17 13 -35 24 -41 25 -21 0 -53 -103 -35 -114 16 -10 14 -51 -3 -65
-16 -14 -19 -11 -36 44 -21 68 -204 438 -281 567 -101 172 -111 183 -191 220
-60 28 -74 40 -94 78 -14 25 -40 64 -59 88 -63 79 -12 96 108 36z m2975 -305
c106 -171 249 -491 301 -671 10 -35 50 -165 89 -289 75 -243 81 -295 41 -337
-10 -11 -26 -37 -36 -58 -10 -21 -31 -45 -46 -52 -18 -9 -36 -32 -51 -65 -13
-29 -33 -61 -46 -72 -25 -22 -110 -188 -110 -216 0 -9 -19 -32 -43 -51 -35
-30 -46 -34 -67 -26 -52 20 -231 -13 -298 -54 -30 -19 -39 -19 -92 -9 -33 7
-77 11 -100 9 -22 -1 -45 3 -52 10 -11 11 48 296 188 912 8 36 26 119 40 185
14 66 42 185 63 265 l36 145 63 3 c58 3 62 4 62 27 0 29 -28 46 -59 38 -14 -4
-26 -1 -32 8 -15 24 -10 111 12 210 11 52 25 113 30 137 18 87 26 84 107 -49z
m-3372 -41 c73 -49 214 -193 271 -278 86 -129 226 -395 363 -691 73 -156 215
-455 316 -663 124 -256 184 -390 184 -412 0 -27 -14 -49 -77 -121 -176 -198
-196 -213 -242 -175 -12 9 -48 82 -81 161 -124 297 -259 509 -500 785 -97 109
-143 154 -279 267 -42 35 -16 42 136 36 86 -3 158 -12 190 -22 29 -9 67 -15
85 -13 30 3 33 6 33 37 0 32 -3 35 -110 92 -60 32 -213 100 -340 150 -126 51
-232 93 -234 95 -2 2 22 117 54 256 40 177 63 259 77 275 22 24 37 79 38 139
0 72 17 104 61 113 3 0 28 -14 55 -31z m-400 -182 c5 -12 -30 -167 -97 -438
-8 -33 -14 -38 -38 -38 -31 0 -85 36 -76 51 4 5 17 9 31 9 28 0 27 -4 14 129
l-11 101 36 55 c38 61 112 145 127 145 5 0 11 -6 14 -14z m3228 -442 c3 -9 6
-30 6 -47 0 -42 -56 -267 -69 -280 -7 -7 -17 -5 -33 7 -13 9 -51 35 -84 57
-35 22 -65 50 -68 62 -8 29 -8 81 1 102 6 18 194 113 224 114 9 1 20 -6 23
-15z m-875 -63 c47 -32 174 -113 281 -181 293 -185 428 -277 447 -306 26 -40
19 -116 -31 -322 -25 -103 -66 -274 -90 -381 -25 -106 -51 -200 -58 -208 -6
-8 -36 -30 -65 -50 -29 -19 -58 -44 -64 -54 -13 -25 -66 -51 -88 -44 -32 10
-51 41 -87 137 -19 51 -62 143 -96 203 -34 61 -76 137 -95 170 -18 33 -42 89
-52 125 -27 88 -68 297 -81 406 -5 49 -14 127 -20 174 -17 148 -22 360 -9 376
6 8 14 14 17 14 3 0 44 -26 91 -59z m-884 -121 c17 -18 17 -21 1 -45 -21 -32
-39 -32 -65 1 -16 20 -18 31 -10 45 13 25 51 24 74 -1z m4448 -209 c9 -9 -103
-761 -112 -761 -4 0 -46 165 -95 368 -49 202 -91 375 -94 384 -3 11 4 18 20
21 33 8 272 -3 281 -12z m-318 -13 c6 -30 137 -570 172 -711 l27 -109 -28
-176 c-27 -169 -32 -191 -39 -181 -5 5 -314 725 -382 889 -29 69 -64 151 -78
182 -14 32 -23 59 -19 62 32 18 247 63 309 65 26 1 34 -4 38 -21z m520 -23
c103 -26 168 -51 162 -62 -2 -5 -82 -244 -177 -533 -95 -289 -177 -536 -183
-550 -8 -21 -16 -1 -53 145 -24 94 -44 187 -44 208 0 21 23 183 50 360 28 177
55 355 62 395 l11 73 41 -7 c23 -3 82 -16 131 -29z m-637 -625 l250 -585 -21
-142 c-12 -79 -24 -143 -27 -143 -3 0 -4 15 -2 34 8 70 -3 76 -186 98 -81 9
-95 9 -111 -6 -9 -9 -22 -16 -28 -16 -6 0 -23 33 -38 73 -14 39 -109 291 -211
558 -157 416 -182 490 -175 515 16 56 40 92 77 115 55 34 208 98 216 91 3 -4
119 -270 256 -592z m-6553 333 c31 -142 71 -320 88 -395 l31 -138 -24 -170
c-13 -93 -27 -170 -30 -170 -3 0 -54 125 -114 278 -267 680 -310 787 -320 795
-19 13 12 24 102 36 114 15 141 18 178 20 l31 1 58 -257z m203 241 c14 -4 22
-14 22 -28 -1 -52 -98 -689 -103 -676 -6 14 -63 267 -127 552 -16 76 -30 145
-30 154 0 15 11 16 108 10 59 -3 117 -9 130 -12z m118 -35 c81 -39 82 -62 9
-359 -30 -124 -73 -308 -95 -409 -22 -102 -42 -187 -44 -189 -2 -2 -15 45 -29
105 l-26 108 55 378 c30 208 54 380 54 383 0 10 34 2 76 -17z m7157 -18 c62
-30 190 -104 214 -125 1 -1 -20 -76 -47 -167 -26 -90 -98 -335 -159 -544
l-111 -380 -83 -79 c-114 -109 -192 -176 -203 -176 -6 0 -30 80 -53 178 l-43
179 36 114 c157 495 342 1039 354 1039 7 0 50 -18 95 -39z m-7850 -13 c9 -18
56 -136 105 -263 50 -126 144 -365 210 -530 l120 -300 -17 -119 c-16 -117 -17
-120 -45 -129 -19 -6 -41 -6 -68 2 -22 7 -58 9 -81 6 -39 -6 -46 -4 -84 32
-39 36 -47 53 -138 318 -53 154 -142 408 -197 565 -56 157 -104 299 -108 317
-7 31 -6 32 52 58 80 36 188 73 214 74 15 1 27 -9 37 -31z m-319 -137 c31 -59
112 -287 298 -829 49 -145 88 -266 85 -268 -5 -5 -204 153 -223 177 -7 8 -89
154 -184 324 -95 171 -176 315 -180 320 -4 6 -24 41 -44 78 -30 57 -35 72 -24
84 18 23 229 162 245 163 2 0 14 -22 27 -49z m1454 22 l21 -18 -25 -95 c-36
-138 -146 -617 -189 -820 l-37 -174 -61 -68 c-33 -37 -62 -67 -63 -65 -4 4 62
283 115 487 28 107 68 283 90 390 22 107 47 215 56 239 8 24 15 50 15 58 0 27
29 83 43 83 8 0 24 -8 35 -17z m7023 -68 c88 -71 189 -165 189 -175 0 -5 -55
-126 -122 -270 l-123 -262 -160 -144 c-87 -79 -161 -141 -163 -139 -2 2 64
235 147 518 83 284 151 518 151 521 0 13 16 4 81 -49z m-1771 -74 c0 -9 4 -21
9 -26 4 -6 27 -62 51 -125 23 -63 59 -160 80 -215 102 -267 231 -618 228 -620
-4 -4 -225 159 -255 187 -38 35 -94 138 -98 182 -3 22 -10 163 -15 311 -6 149
-13 285 -17 304 -4 24 -2 32 6 27 6 -4 11 -15 11 -25z m-6784 -415 c106 -187
190 -343 188 -345 -5 -5 -533 426 -588 480 l-48 48 107 107 108 108 21 -28
c11 -16 107 -182 212 -370z m1868 351 c16 -11 12 -24 -51 -170 -37 -86 -69
-153 -71 -148 -1 4 13 78 33 164 19 85 35 158 35 161 0 11 36 6 54 -7z m119
-105 l77 -77 -182 -173 c-100 -94 -183 -170 -185 -168 -12 12 189 496 207 496
3 0 40 -35 83 -78z m6852 -28 l67 -77 -24 -23 c-50 -49 -332 -293 -335 -290
-2 2 33 82 77 177 45 96 93 200 107 232 15 31 30 57 34 57 4 0 38 -34 74 -76z
m-6718 -106 c60 -63 153 -180 153 -192 0 -6 -49 -43 -108 -83 -59 -39 -210
-141 -335 -227 -125 -86 -230 -156 -233 -156 -3 0 -2 4 1 10 3 5 23 78 44 162
l38 153 114 110 c216 210 274 265 279 265 3 0 24 -19 47 -42z m-2511 -18 c38
-27 192 -150 342 -273 l273 -223 69 -124 c38 -69 67 -126 65 -128 -6 -7 -943
497 -968 521 l-26 24 43 76 c48 84 114 177 125 177 4 0 39 -22 77 -50z m9418
-126 c36 -56 66 -105 66 -108 0 -10 -703 -456 -743 -472 -19 -7 -25 -22 63
166 109 232 87 203 303 394 l199 175 23 -27 c12 -15 52 -73 89 -128z m-2715
-96 c10 -47 9 -62 -3 -93 l-15 -36 -48 26 c-26 14 -54 25 -60 25 -18 0 -17 82
3 128 8 20 27 50 42 65 l26 28 22 -43 c12 -24 27 -68 33 -100z m1387 -130 l42
-170 -25 -77 c-14 -42 -25 -82 -26 -88 -2 -37 -27 -2 -61 83 l-37 96 25 163
c14 90 26 167 26 171 0 4 3 4 7 0 4 -4 26 -84 49 -178z m-6772 44 l22 -94 -25
-124 -25 -124 -24 62 c-26 68 -26 89 9 323 14 89 13 89 43 -43z m1408 51 c72
-109 121 -204 112 -213 -5 -4 -191 -141 -412 -304 l-404 -296 -69 0 c-38 0
-69 2 -69 5 0 3 20 84 45 181 25 96 45 182 45 192 0 13 82 74 258 194 141 97
300 206 352 242 52 36 96 66 97 66 0 0 21 -30 45 -67z m-2442 -269 c466 -248
496 -266 516 -303 24 -44 22 -51 -11 -51 -29 0 -33 -6 -90 -118 -43 -86 -52
-123 -23 -94 18 18 38 14 38 -8 0 -14 -10 -22 -32 -28 -23 -6 -32 -14 -30 -25
2 -13 -5 -17 -27 -17 -20 0 -126 59 -355 199 -179 109 -396 241 -481 293 -85
51 -157 99 -160 106 -5 14 53 203 86 277 19 42 23 46 47 40 14 -3 249 -125
522 -271z m9261 184 c23 -46 57 -117 74 -159 l33 -77 -376 -255 -377 -255
-177 -7 c-124 -5 -178 -4 -178 3 0 6 36 84 79 174 l79 163 394 247 c216 136
396 248 400 248 4 0 26 -37 49 -82z m-772 -218 l-83 -181 -100 -64 c-55 -35
-102 -62 -104 -60 -2 2 11 54 29 115 l33 111 150 133 c83 74 153 132 155 130
2 -2 -34 -85 -80 -184z m-1559 150 c12 -23 12 -24 -3 -11 -10 7 -17 20 -17 29
0 18 3 16 20 -18z m36 -72 c20 -21 94 -134 94 -142 0 -2 -22 4 -50 13 -69 23
-87 44 -96 115 -6 55 -5 58 12 48 11 -6 29 -21 40 -34z m-1679 -4 c4 -12 14
-14 38 -10 22 5 36 2 45 -9 7 -8 18 -15 24 -15 7 0 20 -6 30 -13 17 -12 17
-17 5 -53 -7 -21 -20 -47 -28 -56 -15 -19 -46 -24 -56 -9 -3 5 -27 17 -55 26
-27 9 -60 25 -74 36 -21 17 -23 23 -15 52 15 53 72 87 86 51z m-2671 -72 c23
-42 53 -109 67 -148 l25 -70 -276 -141 -277 -141 -183 -4 c-100 -2 -181 1
-179 5 2 8 768 576 777 576 3 1 24 -34 46 -77z m4542 -62 c56 -41 101 -79 102
-84 0 -16 -82 2 -104 23 -12 12 -29 21 -37 21 -13 0 -89 106 -89 124 0 10 13
1 128 -84z m-6657 -13 c79 -63 98 -84 108 -117 10 -34 10 -43 -4 -56 -14 -14
-19 -13 -57 8 -36 19 -53 41 -105 133 -63 111 -73 135 -50 118 6 -5 55 -44
108 -86z m491 -80 c-7 -27 -14 -33 -41 -35 -28 -3 -32 -1 -28 15 3 10 8 41 12
68 3 28 8 64 12 80 6 28 7 27 30 -33 17 -48 21 -71 15 -95z m6749 53 l38 -90
-22 -66 -21 -66 -25 30 c-14 16 -34 32 -44 36 -12 4 -17 12 -13 23 2 10 10 54
16 98 15 109 21 137 28 131 3 -3 22 -46 43 -96z m139 5 c61 -233 61 -234 50
-255 -25 -46 -64 -15 -101 81 -16 41 -29 79 -29 86 0 17 51 176 55 171 2 -1
13 -39 25 -83z m-8424 -11 c60 -37 271 -166 469 -288 l360 -221 -65 -6 c-166
-16 -157 -18 -519 111 -185 67 -354 128 -377 136 l-40 15 8 77 c4 42 15 111
23 153 8 42 15 79 15 82 0 14 20 5 126 -59z m9963 -56 c63 -195 78 -166 -144
-272 l-190 -91 -220 -3 -220 -3 50 34 c335 230 671 456 677 457 4 0 25 -55 47
-122z m-1218 -69 c-17 -56 -32 -103 -33 -104 -2 -1 -22 -14 -46 -29 -39 -24
-50 -26 -97 -21 -31 4 -56 13 -59 21 -3 8 46 59 127 132 73 65 133 115 135
111 2 -4 -11 -54 -27 -110z m-6826 -3 c-18 -68 -31 -95 -52 -113 -44 -36 -58
-27 -58 38 0 55 1 55 65 116 36 34 66 58 68 55 1 -4 -9 -47 -23 -96z m-717 18
c-10 -10 -28 6 -28 24 0 15 1 15 17 -1 9 -9 14 -19 11 -23z m4496 10 c41 -6
46 -10 46 -31 0 -37 -92 -204 -110 -201 -8 2 -25 23 -37 48 -30 58 -31 128 -2
164 22 28 31 30 103 20z m-4354 -24 c0 -12 -45 -24 -60 -15 -5 3 -8 11 -5 16
8 12 65 12 65 -1z m7015 -46 c31 -71 31 -80 0 -60 -16 11 -34 14 -47 10 -16
-5 -20 -3 -15 9 3 8 11 33 18 56 7 23 14 41 16 41 2 0 14 -25 28 -56z m560 36
c-3 -11 -36 -81 -72 -156 -61 -126 -66 -134 -82 -120 -10 9 -25 16 -33 16 -24
0 -32 54 -17 107 11 42 20 50 108 109 53 34 97 63 99 63 2 1 0 -8 -3 -19z
m-7415 0 c0 -5 -9 -10 -20 -10 -11 0 -20 5 -20 10 0 6 9 10 20 10 11 0 20 -4
20 -10z m1787 -121 c22 -85 28 -121 20 -124 -21 -6 -558 -13 -552 -7 11 11
480 252 491 252 5 0 24 -54 41 -121z m-2167 80 c0 -18 -24 -21 -37 -4 -20 28
-16 36 12 23 14 -6 25 -15 25 -19z m3875 -9 c0 -26 -5 -36 -18 -38 -18 -4 -57
23 -57 39 0 17 34 40 54 37 17 -2 21 -10 21 -38z m-3731 4 c9 -8 16 -24 16
-35 0 -19 -1 -19 -40 1 -22 11 -40 27 -40 35 0 20 44 19 64 -1z m162 -39 c-4
-14 -11 -25 -16 -25 -13 0 -13 16 1 42 14 26 23 16 15 -17z m56 -20 c-4 -58
-6 -62 -27 -45 -27 23 -16 104 14 98 13 -3 15 -14 13 -53z m-62 -51 c0 -16 -9
-18 -28 -6 -7 5 -10 16 -6 26 5 13 9 14 20 5 8 -6 14 -18 14 -25z m447 9 c-9
-9 -20 -13 -24 -9 -4 4 1 14 11 22 25 18 35 8 13 -13z m8180 -129 c-2 -3 -84
-3 -182 -2 l-177 3 163 77 164 78 18 -76 c10 -42 16 -78 14 -80z m-8992 137
c6 -11 -33 -36 -42 -27 -7 7 16 36 28 36 4 0 10 -4 14 -9z m7637 -16 c-6 -33
-16 -39 -33 -19 -11 14 -10 18 6 30 27 20 33 17 27 -11z m-8527 -105 c165 -59
316 -115 335 -123 l35 -15 -30 -1 c-16 -1 -156 -10 -310 -21 -154 -11 -301
-20 -326 -20 l-46 0 -6 43 c-3 23 -3 90 0 150 6 103 7 107 27 101 12 -3 156
-55 321 -114z m1052 97 c10 -10 73 -168 73 -183 0 -2 -8 -4 -18 -4 -13 0 -35
31 -74 99 -31 55 -53 102 -50 106 9 8 54 -4 69 -18z m-39 -84 c29 -52 51 -98
48 -100 -6 -6 -239 -23 -244 -18 -2 1 0 19 3 38 12 63 99 176 135 176 3 0 29
-43 58 -96z m287 67 c18 -20 11 -25 -19 -14 -17 6 -23 34 -8 34 5 0 17 -9 27
-20z m5355 -6 c30 -8 72 -19 93 -23 21 -5 42 -13 47 -17 11 -12 -10 -114 -24
-114 -6 0 -80 23 -163 51 -158 52 -165 57 -147 103 8 21 120 22 194 0z m-5412
-25 c2 -23 2 -23 -13 -5 -18 24 -20 39 -2 34 6 -3 13 -15 15 -29z m-398 3 c0
-23 -19 -42 -42 -42 -25 0 -23 26 4 44 29 21 38 20 38 -2z m310 -43 l53 -61
-21 -20 c-11 -12 -27 -18 -35 -15 -16 6 -71 157 -58 157 4 0 32 -27 61 -61z
m135 16 c0 -28 -29 -25 -33 3 -3 19 0 23 15 20 10 -2 18 -12 18 -23z m1869
-41 c6 -16 56 -296 56 -315 0 -14 -33 -11 -236 21 -104 17 -218 35 -254 40
-49 7 -348 57 -500 83 -8 1 57 40 145 86 l160 84 255 7 c140 4 280 7 311 8 44
2 58 -2 63 -14z m3459 -36 l158 -53 -6 -35 c-4 -19 -10 -38 -13 -41 -4 -4 -76
-10 -159 -14 l-153 -7 0 101 c0 55 3 101 7 101 4 0 79 -24 166 -52z m-4143 27
c0 -3 -68 -39 -150 -80 l-150 -75 -103 16 c-56 9 -104 17 -105 19 -6 6 143
112 163 118 26 6 345 8 345 2z m-400 -9 c0 -5 -96 -76 -103 -76 -9 0 -17 48
-11 64 5 12 20 16 60 16 30 0 54 -2 54 -4z m7826 -91 c7 -44 15 -113 19 -154
l7 -74 -34 7 c-18 4 -96 16 -173 27 -77 11 -165 24 -195 29 -30 5 -104 16
-165 25 -60 9 -146 23 -190 30 l-80 12 170 83 c94 45 181 86 195 90 14 5 117
8 230 7 l205 -2 11 -80z m-966 68 c0 -5 -37 -33 -83 -65 -78 -53 -85 -56 -130
-51 -49 6 -81 32 -70 58 2 8 0 23 -6 34 -11 19 -8 20 66 24 164 7 223 7 223 0z
m459 3 c-2 -2 -81 -40 -174 -84 l-171 -81 -114 16 c-63 9 -118 19 -122 22 -4
4 34 35 84 69 l92 62 205 0 c112 0 202 -2 200 -4z m-8344 -65 c-6 -4 -47 -18
-93 -30 -74 -20 -84 -21 -98 -7 -8 9 -20 16 -26 16 -6 0 -8 3 -4 8 4 4 56 10
114 13 59 3 109 6 112 7 2 1 0 -2 -5 -7z m85 -11 c0 -5 -5 -10 -11 -10 -5 0
-7 5 -4 10 3 6 8 10 11 10 2 0 4 -4 4 -10z m-433 -12 c4 -7 7 -22 8 -33 0 -16
6 -19 28 -17 46 5 21 -16 -28 -23 -35 -6 -61 -1 -135 25 -50 18 -88 36 -85 39
4 3 45 8 93 12 48 3 92 7 99 7 6 1 15 -4 20 -10z m396 -3 c1 -6 -22 -22 -52
-37 -56 -28 -122 -36 -151 -18 -18 11 -16 12 101 44 90 25 100 26 102 11z
m4766 -21 c17 -14 31 -31 31 -38 0 -7 9 -21 20 -31 24 -22 28 -83 5 -91 -8 -4
-36 3 -61 15 -42 20 -45 24 -39 51 6 27 4 30 -19 30 -23 0 -26 4 -26 33 0 61
38 74 89 31z m-5347 -20 c57 -20 106 -39 110 -43 10 -9 -900 -274 -916 -268
-12 5 -36 122 -52 245 l-7 52 44 1 c33 0 483 31 701 48 9 0 63 -15 120 -35z
m1558 3 l65 -13 -66 -37 c-36 -20 -69 -37 -72 -37 -4 0 -7 11 -7 25 0 14 -9
30 -20 37 -11 7 -20 18 -20 25 0 16 35 16 120 0z m6640 -29 c-23 -19 -24 -19
-31 -1 -12 29 -11 30 23 25 l32 -5 -24 -19z m-6098 -57 c238 -39 470 -75 514
-82 l82 -12 6 -36 c3 -20 6 -91 6 -159 0 -94 -3 -124 -14 -128 -7 -3 -64 2
-127 11 -63 8 -309 37 -547 65 -263 30 -439 54 -450 62 -10 7 -40 32 -66 54
-42 38 -45 44 -36 69 5 14 10 50 10 78 l0 52 88 47 c48 26 90 47 94 48 3 0
201 -31 440 -69z m6328 46 l65 -12 -127 -62 c-174 -84 -163 -82 -177 -29 -16
66 -14 79 22 103 35 25 80 25 217 0z m-2195 -4 c-4 -10 -18 -53 -32 -96 -33
-100 -48 -112 -157 -120 -46 -4 -91 -4 -99 -1 -18 7 -28 88 -20 165 l6 58 71
4 c206 10 239 8 231 -10z m-5990 -3 c-3 -5 -16 -10 -28 -9 -21 0 -21 1 -2 9
28 12 37 12 30 0z m8578 -50 c150 -22 337 -50 417 -61 80 -12 151 -23 158 -25
9 -2 12 -47 12 -179 0 -168 -1 -175 -20 -175 -11 0 -120 11 -243 24 -122 14
-319 34 -437 46 -246 25 -274 31 -314 66 -29 25 -29 26 -16 80 10 42 11 62 1
94 -12 42 -31 62 -31 34 0 -21 -28 -54 -47 -54 -7 0 -13 -9 -13 -20 0 -26 -20
-26 -27 -1 -3 11 -18 24 -34 30 -16 5 -29 14 -29 18 1 9 317 161 338 162 7 1
136 -17 285 -39z m-8632 -12 c1 -73 5 -87 28 -112 14 -15 25 -44 30 -77 5 -30
19 -76 31 -103 l23 -50 -30 -26 c-22 -20 -52 -31 -119 -44 -49 -10 -170 -35
-269 -57 -193 -43 -541 -118 -564 -122 -16 -2 -67 129 -106 274 l-23 87 252
72 c138 40 348 101 466 136 118 34 230 63 248 63 31 1 32 0 33 -41z m136 16
c-3 -3 -12 -4 -19 -1 -8 3 -5 6 6 6 11 1 17 -2 13 -5z m-18 -20 c5 -5 -14 -41
-39 -74 -15 -20 -22 -22 -31 -13 -9 9 -9 15 0 26 6 8 9 22 5 31 -13 33 36 56
65 30z m228 -9 c9 -24 0 -25 -27 -5 l-25 20 23 0 c12 0 25 -7 29 -15z m-12
-39 c18 -14 16 -14 -25 -1 -79 27 -76 25 -60 35 14 9 47 -4 85 -34z m-37 -15
c24 -10 44 -21 44 -25 0 -7 -171 -186 -178 -186 -2 0 -11 25 -20 55 -19 67
-10 103 38 152 34 35 34 35 116 4z m-25 -171 c-64 -97 -88 -117 -88 -73 0 19
130 171 148 172 4 1 -23 -44 -60 -99z m114 55 c27 -43 43 -98 33 -115 -7 -12
-146 -50 -183 -50 -13 0 -2 23 49 100 37 55 70 100 73 100 3 -1 16 -16 28 -35z
m929 -40 l39 -34 -47 -1 -48 0 0 35 c0 19 4 35 8 35 5 0 26 -16 48 -35z m-179
-40 c19 -8 46 -15 58 -15 16 0 41 -22 84 -75 34 -41 57 -75 51 -75 -6 0 -60
14 -121 32 l-109 31 0 36 c0 20 -3 46 -6 59 -7 26 -4 27 43 7z m-577 1 c0 -11
-19 -15 -25 -6 -3 5 1 10 9 10 9 0 16 -2 16 -4z m822 -25 c19 -7 280 -232 275
-237 -1 -1 -64 16 -140 38 l-138 41 -69 80 c-39 44 -70 84 -70 89 0 9 110 0
142 -11z m-722 -43 c49 -67 48 -79 -5 -153 -26 -36 -52 -64 -58 -62 -6 2 -20
15 -31 30 -16 22 -21 47 -24 121 -5 103 -5 102 60 105 22 1 35 -8 58 -41z
m1310 -23 c528 -61 529 -62 536 -80 10 -25 -54 -295 -75 -317 -7 -8 -385 98
-635 178 -85 28 -94 34 -227 149 -76 66 -138 123 -138 127 -1 4 14 5 32 2 17
-2 246 -29 507 -59z m6240 34 c0 -4 -9 -5 -20 -2 -11 3 -20 12 -20 19 0 12 4
12 20 2 11 -7 20 -16 20 -19z m-7684 -124 c-10 -27 -26 52 -19 94 l7 46 8 -65
c4 -36 6 -69 4 -75z m195 117 c15 -13 20 -25 16 -36 -9 -24 -28 -16 -50 22
-16 27 -16 32 -4 32 8 0 25 -8 38 -18z m319 2 c0 -10 -7 -14 -22 -12 -32 5
-35 28 -4 28 17 0 26 -5 26 -16z m-220 -29 c21 -35 43 -95 34 -95 -5 0 -50 50
-71 81 -13 17 -8 49 7 49 5 0 18 -16 30 -35z m120 9 c0 -8 -4 -12 -10 -9 -5 3
-10 10 -10 16 0 5 5 9 10 9 6 0 10 -7 10 -16z m6259 7 c19 -12 1 -21 -71 -36
-49 -11 -58 -10 -58 2 0 28 97 54 129 34z m-6853 -32 c-39 -21 -66 -29 -82
-25 -40 10 -27 24 39 39 95 23 108 19 43 -14z m634 10 c0 -5 -4 -9 -10 -9 -5
0 -10 7 -10 16 0 8 5 12 10 9 6 -3 10 -10 10 -16z m7423 -112 c83 -67 145
-123 140 -124 -5 -2 -77 15 -159 37 -146 41 -150 43 -191 88 -42 47 -48 66
-36 110 5 22 9 23 51 17 39 -6 68 -25 195 -128z m-8278 103 c3 -5 -1 -10 -10
-10 -9 0 -13 5 -10 10 3 6 8 10 10 10 2 0 7 -4 10 -10z m8646 -35 c233 -25
429 -47 435 -49 8 -3 4 -50 -12 -158 -13 -84 -23 -156 -24 -160 0 -7 -62 9
-377 97 l-173 49 -142 114 c-79 63 -152 123 -163 133 -19 19 -19 19 7 19 14 0
216 -20 449 -45z m-7921 -76 c0 -4 -12 -14 -26 -24 -24 -16 -26 -16 -39 1 -34
47 -47 84 -40 111 l7 28 49 -54 c27 -30 49 -58 49 -62z m381 60 l137 -42 314
-394 c172 -218 329 -416 349 -442 61 -76 60 -81 -18 -162 -37 -39 -85 -85
-106 -101 l-37 -30 -34 29 c-26 22 -570 632 -742 832 -25 30 -34 55 -52 148
-12 62 -22 117 -22 122 0 11 58 81 68 81 3 0 67 -19 143 -41z m6029 -141 c7
-109 8 -174 1 -185 -5 -10 -28 -36 -51 -58 l-42 -40 6 35 c3 19 15 118 27 220
11 102 22 191 25 199 12 38 23 -18 34 -171z m72 155 c49 -53 59 -98 38 -173
-13 -47 -70 -117 -80 -98 -4 7 -11 77 -15 156 -7 136 -6 142 12 142 11 0 31
-12 45 -27z m-7172 2 c0 -3 -11 -22 -25 -43 -23 -35 -73 -63 -195 -110 -8 -3
16 28 54 71 39 42 77 78 85 80 24 7 81 8 81 2z m6610 -4 c0 -23 -91 -73 -106
-58 -10 9 17 48 39 57 29 12 67 12 67 1z m331 -7 c-19 -8 -37 -12 -40 -9 -9
10 22 25 49 24 23 0 22 -1 -9 -15z m99 -5 c0 -47 -52 -454 -59 -464 -23 -30
-636 -792 -647 -805 -12 -12 -23 -6 -80 50 -91 89 -197 227 -190 245 3 9 130
196 283 417 268 387 280 402 328 424 l50 24 9 -45 c14 -74 56 -49 56 33 0 32
5 41 25 50 l25 12 0 -78 c0 -47 5 -83 12 -90 11 -11 88 -18 88 -8 0 2 -11 28
-25 58 -14 30 -25 71 -25 95 0 43 0 43 63 72 76 36 87 37 87 10z m-376 -4 c3
-8 2 -15 -2 -15 -4 0 -18 -3 -32 -7 -25 -6 -25 -6 -6 15 23 26 32 27 40 7z
m-6830 -37 c-113 -128 -100 -120 -429 -267 -355 -159 -312 -156 -376 -28 -61
121 -71 147 -56 152 6 2 190 40 407 85 217 44 411 84 430 89 61 15 63 12 24
-31z m1003 26 c3 -9 0 -20 -8 -25 -21 -13 -29 -11 -29 9 0 33 26 44 37 16z
m-812 -4 c3 -5 4 -10 1 -10 -2 0 -12 -3 -20 -6 -12 -5 -15 -2 -10 10 7 18 20
21 29 6z m70 -10 c-3 -5 -13 -10 -21 -10 -26 0 -14 -19 25 -39 21 -11 41 -27
44 -35 4 -9 21 -23 40 -33 18 -10 51 -27 71 -38 37 -19 38 -21 32 -64 -3 -24
-6 -58 -6 -76 0 -27 -49 -99 -281 -411 -155 -209 -284 -382 -288 -387 -8 -8
-195 139 -245 191 l-29 31 46 73 c26 40 142 224 260 408 l213 335 59 32 c60
33 91 42 80 23z m504 -42 l23 -38 -24 -9 c-35 -13 -88 -23 -88 -17 0 16 55
115 60 108 4 -4 17 -24 29 -44z m6231 31 c0 -5 -7 -9 -15 -9 -9 0 -12 6 -9 15
6 15 24 11 24 -6z m1065 1 c18 -8 17 -9 -7 -9 -16 -1 -28 4 -28 9 0 12 8 12
35 0z m129 -41 c-2 -4 -18 -3 -34 3 -26 8 -28 13 -19 30 11 20 11 20 35 -3 13
-12 21 -25 18 -30z m-7720 18 c0 -9 -1 -33 -2 -53 -2 -39 -17 -38 -32 2 -11
29 4 78 23 71 6 -2 12 -11 11 -20z m6369 17 c3 -4 -7 -26 -24 -49 -29 -40 -48
-51 -176 -102 -30 -12 -9 32 37 81 37 39 61 56 93 63 54 14 62 14 70 7z m958
-64 c-3 -18 -13 -36 -20 -38 -10 -3 -12 0 -8 13 4 9 10 35 14 58 5 33 8 37 14
21 4 -12 4 -36 0 -54z m-7116 23 c-18 -43 -32 -60 -41 -50 -7 6 41 87 51 87 3
0 -2 -17 -10 -37z m6225 22 c0 -14 -57 -51 -66 -42 -9 8 8 37 22 37 8 0 14 5
14 10 0 6 7 10 15 10 8 0 15 -7 15 -15z m1312 -45 c6 0 523 -595 707 -813 l23
-28 -57 -87 c-50 -74 -154 -212 -161 -212 -1 0 -33 33 -71 72 -38 40 -229 240
-425 443 -325 339 -356 374 -363 413 -4 23 -3 42 2 42 26 0 44 31 58 100 11
52 23 83 41 101 l26 27 106 -29 c59 -16 110 -29 114 -29z m-7179 -90 l7 -45
-40 44 c-48 52 -54 99 -17 124 21 14 22 14 33 -32 6 -25 14 -66 17 -91z m523
102 c71 -21 137 -43 146 -48 24 -13 517 -446 555 -487 l32 -35 -53 -84 c-29
-47 -69 -106 -89 -133 l-37 -48 -43 44 c-40 43 -648 804 -655 821 -6 13 5 10
144 -30z m5112 8 c-13 -20 -28 -27 -28 -12 0 10 22 32 32 32 5 0 3 -9 -4 -20z
m-6158 -32 c11 -18 20 -39 20 -45 0 -14 -46 -18 -54 -5 -6 9 4 82 10 82 3 0
13 -15 24 -32z m430 11 c0 -11 -4 -17 -10 -14 -5 3 -10 13 -10 21 0 8 5 14 10
14 6 0 10 -9 10 -21z m-1032 -271 c-99 -156 -213 -333 -252 -395 l-71 -112
-33 32 c-19 18 -59 62 -89 100 -55 67 -56 68 -37 89 11 12 117 125 237 252
l218 230 92 42 c51 24 97 43 104 43 7 1 -69 -126 -169 -281z m492 257 c0 -23
-21 -28 -38 -11 -14 14 -15 18 -3 25 18 11 41 3 41 -14z m477 -2 c4 -12 -34
-29 -44 -19 -3 3 -3 12 1 21 7 18 37 17 43 -2z m57 -25 c17 -23 24 -178 9
-178 -5 1 -27 32 -50 70 l-42 70 27 29 c34 36 37 36 56 9z m7506 -22 c88 -25
166 -48 174 -53 7 -4 119 -93 248 -197 l235 -189 -19 -51 c-33 -87 -116 -256
-127 -256 -9 0 -681 774 -681 785 0 8 0 8 170 -39z m-7674 -3 c-10 -10 -19 5
-10 18 6 11 8 11 12 0 2 -7 1 -15 -2 -18z m1329 -83 c165 -50 306 -96 313
-103 13 -14 -7 -72 -72 -209 l-27 -56 -28 14 c-28 14 -521 439 -521 450 0 3 8
3 18 0 9 -3 152 -46 317 -96z m-1385 75 c0 -9 -9 -15 -25 -15 -24 0 -32 10
-18 23 12 13 43 7 43 -8z m6024 -12 c-30 -47 -516 -747 -524 -756 -7 -8 -105
125 -136 184 -25 48 -17 64 70 146 86 81 108 93 189 93 21 0 33 8 49 36 14 25
40 45 87 68 79 40 88 50 134 142 33 66 39 72 89 92 29 11 55 21 57 21 2 1 -5
-11 -15 -26z m-5725 -42 c39 -47 43 -57 67 -183 14 -73 27 -142 31 -153 4 -18
3 -18 -9 -5 -8 8 -40 56 -71 105 -55 89 -56 91 -63 188 -4 53 -4 97 -1 97 3 0
24 -22 46 -49z m-115 -52 l56 -92 10 -526 c5 -289 10 -541 10 -560 l0 -34 -97
7 c-54 4 -127 13 -163 19 l-65 12 -12 140 c-6 77 -19 244 -27 370 -9 127 -21
293 -26 370 -16 213 -15 223 15 293 l28 62 71 0 c43 1 81 6 96 15 14 8 30 14
37 15 6 0 36 -41 67 -91z m-1064 75 c0 -6 -39 -47 -291 -309 -42 -44 -93 -95
-112 -114 l-36 -34 -67 104 c-37 56 -64 104 -58 106 5 2 133 60 284 128 302
137 280 127 280 119z m710 -13 c0 -3 -18 -26 -40 -51 l-39 -45 -1 42 c0 61 5
70 45 65 19 -2 35 -7 35 -11z m70 9 c0 -13 -39 -90 -45 -90 -3 0 -5 23 -5 50
0 47 2 50 25 50 14 0 25 -5 25 -10z m6745 -47 c-7 -45 -45 -133 -57 -133 -4 0
-8 21 -8 46 0 36 6 54 31 85 17 21 33 39 35 39 3 0 2 -17 -1 -37z m1562 -39
c131 -36 240 -68 242 -70 5 -5 -50 -214 -57 -214 -5 0 -390 307 -422 337 -8 7
-11 13 -8 13 4 0 114 -30 245 -66z m-8408 -128 c-22 -50 -49 -107 -60 -126
l-19 -35 6 80 c9 119 18 149 60 207 l39 52 7 -44 c7 -38 3 -55 -33 -134z
m7331 145 c0 -5 3 -18 7 -28 6 -17 5 -17 -15 1 -12 10 -19 23 -16 27 7 12 24
11 24 0z m-430 -31 c0 -5 -5 -10 -11 -10 -5 0 -7 5 -4 10 3 6 8 10 11 10 2 0
4 -4 4 -10z m479 -203 c17 -81 31 -156 31 -165 0 -9 -36 37 -80 103 -78 117
-80 121 -80 181 0 53 3 62 23 71 18 9 26 7 49 -16 23 -22 32 -49 57 -174z
m-6537 -104 c433 -489 459 -519 473 -547 14 -26 13 -28 -33 -61 -26 -19 -82
-55 -125 -81 -77 -47 -78 -47 -97 -28 -15 16 -395 628 -429 691 -6 13 -23 82
-36 155 -24 131 -29 168 -21 168 2 0 123 -134 268 -297z m5868 64 c-71 -139
-85 -159 -77 -107 4 19 9 69 13 110 7 85 11 95 68 168 l41 53 8 -51 c9 -50 7
-55 -53 -173z m520 171 l0 -43 -25 37 c-14 20 -25 39 -25 42 0 4 11 6 25 6 23
0 25 -4 25 -42z m-34 -25 l39 -58 6 -390 c13 -741 14 -870 6 -882 -11 -18
-338 -18 -355 -1 -7 7 -12 32 -12 58 0 25 -9 160 -20 300 -11 140 -20 258 -20
263 0 11 38 9 45 -3 3 -5 15 -10 26 -10 14 0 27 16 46 58 23 52 26 67 24 167
-2 111 -15 237 -31 288 -9 30 28 179 50 201 10 10 27 12 108 17 12 1 22 6 22
13 0 10 19 36 26 36 0 0 19 -26 40 -57z m-7121 -469 c41 -565 42 -577 18 -570
-10 2 -54 14 -98 26 -44 12 -97 29 -118 37 -37 15 -38 17 -32 57 3 22 19 183
36 356 l30 315 61 132 c34 73 63 131 65 130 2 -2 19 -219 38 -483z m-169 346
c-15 -136 -13 -131 -186 -485 -32 -66 -70 -148 -85 -182 -15 -35 -31 -63 -36
-63 -10 0 -177 96 -206 118 -22 17 -22 17 249 380 149 200 272 361 274 360 2
-2 -3 -60 -10 -128z m7900 -310 c188 -195 353 -369 367 -386 l27 -31 -98 -94
c-53 -52 -111 -104 -128 -116 l-31 -22 -252 377 -251 377 -30 150 c-40 199
-39 201 12 145 24 -25 196 -205 384 -400z m-7268 312 l72 -112 75 -402 c42
-220 74 -406 71 -413 -5 -13 -149 -35 -228 -35 l-46 0 -6 113 c-8 151 -19 973
-13 967 2 -3 36 -56 75 -118z m6247 -118 c6 -105 5 -111 -19 -157 -21 -38 -28
-72 -37 -168 -7 -66 -9 -123 -5 -127 7 -6 21 10 29 33 2 5 17 -2 34 -15 36
-29 35 -21 62 -395 10 -137 14 -254 10 -259 -11 -13 -144 17 -243 53 -43 17
-80 32 -83 35 -2 2 9 130 26 283 17 153 38 350 47 438 l17 160 70 140 c81 160
80 160 92 -21z m-166 19 l-12 -118 -83 -165 c-45 -91 -128 -256 -185 -367
l-104 -201 -28 16 c-54 32 -212 163 -212 176 0 16 625 789 632 782 3 -2 -1
-58 -8 -123z m728 -6 l83 -122 85 -420 c48 -231 87 -437 88 -458 l3 -37 -66
-20 c-111 -32 -241 -53 -254 -40 -7 7 -13 140 -18 418 -4 224 -8 496 -11 605
-2 108 -1 197 2 197 3 -1 43 -56 88 -123z m-1847 94 c0 -5 3 -17 6 -26 5 -13
2 -16 -17 -13 -32 4 -41 48 -10 48 12 0 21 -4 21 -9z m137 -56 c-37 -36 -71
-65 -75 -65 -14 0 -44 61 -38 76 4 11 14 14 35 9 21 -4 38 0 66 19 21 15 47
26 59 26 17 -1 7 -14 -47 -65z m1261 -73 c3 -69 -22 -148 -38 -122 -21 34 -1
195 24 187 6 -2 12 -31 14 -65z m-6035 -384 c98 -158 177 -294 177 -303 0 -9
-18 -24 -44 -35 -54 -23 -208 -72 -212 -67 -2 1 -30 147 -64 322 -34 176 -65
342 -71 369 -18 95 -31 113 214 -286z m-1005 17 c-17 -176 -33 -322 -35 -324
-6 -8 -203 82 -203 93 0 6 43 101 96 211 53 110 111 233 130 274 19 41 36 72
39 70 2 -3 -10 -149 -27 -324z m7841 -120 c121 -181 221 -335 221 -342 0 -6
-20 -26 -44 -43 -49 -33 -203 -110 -222 -110 -6 0 -17 12 -23 28 -10 25 -171
787 -171 812 0 10 28 -30 239 -345z m-1143 -68 c-24 -219 -46 -400 -49 -403
-11 -11 -257 125 -257 141 0 15 340 668 345 663 2 -2 -16 -182 -39 -401z"/>
</g>
</svg>
